<?xml version="1.0" encoding="UTF-8"?>
<svg width="56px" height="56px" viewBox="0 0 56 56" version="1.1" xmlns="http://www.w3.org/2000/svg" xmlns:xlink="http://www.w3.org/1999/xlink">
    <!-- Generator: Sketch 62 (91390) - https://sketch.com -->
    <title>ico-france</title>
    <desc>Created with Sketch.</desc>
    <g id="DESKTOP" stroke="none" stroke-width="1" fill="none" fill-rule="evenodd">
        <g id="SEO-Geolocalisee" transform="translate(-821.000000, -3222.000000)">
            <g id="Bloc-réassurance" transform="translate(0.000000, 2895.000000)">
                <g id="01-copy-2" transform="translate(809.000000, 327.000000)">
                    <g id="fr">
                        <g id="ico-france" transform="translate(12.000000, 0.000000)">
                            <path d="M35.6104217,35.3641519 C36.963538,35.3641519 38.2628248,35.3810822 39.5612434,35.3556868 C40.0693674,35.3459194 40.363476,34.9617333 40.3641271,34.3867566 C40.3689023,30.1186016 40.3697705,25.8502295 40.3654295,21.5820744 C40.3647783,20.9441519 40.0326853,20.6177023 39.3886853,20.6127101 C38.2493674,20.6035938 37.1100496,20.6090202 35.9705147,20.6135783 C35.8520031,20.6140124 35.7332744,20.6487411 35.6104217,20.6680589 L35.6104217,35.3641519 Z M25.999693,35.368276 L25.999693,20.6096713 C24.7620496,20.6096713 23.5699876,20.6072837 22.3777085,20.6103225 C21.5620186,20.612493 21.2737705,20.8990047 21.2720341,21.7240279 C21.267476,23.8759039 21.2694295,26.0277798 21.2692124,28.1796558 C21.2692124,30.2230047 21.2661736,32.2665705 21.2713829,34.3101364 C21.2733364,34.9903845 21.5683132,35.3546016 22.163693,35.3628496 C23.4278171,35.380431 24.6923752,35.368276 25.999693,35.368276 L25.999693,35.368276 Z M27.8186078,35.3250822 L33.8294915,35.3250822 L33.8294915,20.636586 L27.8186078,20.636586 L27.8186078,35.3250822 Z M31.2428992,0.268192248 C31.650093,0.315944186 32.1655969,0.650207752 32.3715814,1.00357209 C33.6747752,3.23814574 35.7287597,4.43606822 38.0555814,5.27737054 C38.6394574,5.4887814 39.1402016,5.76487442 39.4241085,6.33290543 C40.7676744,5.87405271 42.0009767,6.42971163 42.2353953,8.37842481 C42.3994884,9.74282791 43.1934729,10.3785798 44.5704651,10.2826419 C44.8949612,10.2600682 45.2192403,10.2168744 45.5439535,10.2136186 C46.8026512,10.2008124 47.8076124,10.7002543 48.6050698,11.6822078 C48.8121395,11.9374636 49.1433643,12.159076 49.4596124,12.2472 C50.9731318,12.6702388 52.5005426,13.0444403 54.0244806,13.431231 C55.3838915,13.7765643 55.8794264,14.7693705 55.3296279,16.0738667 C54.8106512,17.3058667 54.3112093,18.5472 53.7544651,19.7618357 C53.137814,21.107138 52.9656899,22.5327504 52.8693178,23.9802853 C52.8597674,24.1246264 52.8628062,24.2696186 52.8517364,24.4137426 C52.7440775,25.8202543 52.0317054,26.5578047 50.6197674,26.6494016 C50.2616279,26.6728434 50.0749612,26.8074171 49.8984961,27.0900217 C49.4292248,27.8403783 48.9330388,28.5738047 48.4273023,29.3449984 C50.2653178,30.459355 50.9716124,32.1237271 50.4923566,34.2169984 C50.4094419,34.5803473 50.4278915,34.8644713 50.6670853,35.1646574 C50.9590233,35.5314791 51.2066822,35.9338977 51.4647597,36.3267659 C52.1224341,37.3286884 51.8910543,38.331045 50.8611318,38.9650605 C50.785814,39.011293 50.7126667,39.0609984 50.6069612,39.1300217 C51.1029302,40.0307969 50.9737829,40.9458977 50.6390853,41.9187349 L51.5169952,41.918277 C51.6074593,41.9184093 51.6967364,41.9186806 51.786,41.919169 C53.0505581,41.9265488 53.8091628,42.7648124 53.6834884,44.0122233 C53.5877674,44.9657426 53.5000775,45.9199132 53.3993643,46.8727814 C53.305814,47.7566264 52.7104341,48.4116961 51.8294109,48.4668279 C51.0764496,48.5143628 50.5390233,48.8768434 50.0519535,49.3845333 C49.9269302,49.5149829 49.7914884,49.6417426 49.6948992,49.7921612 C48.6508682,51.4178977 47.0320775,51.7651845 45.2663411,51.8133705 C44.1090078,51.8450605 43.0682326,51.5539907 42.0904031,50.9134636 C41.317907,50.4075101 40.481814,50.1926264 39.5206977,50.5383938 C38.3848527,50.9475411 37.4736589,50.5025798 36.8166357,49.4898047 C35.8483566,49.9445333 35.2154264,50.6406264 35.0042326,51.6681612 C34.9562636,51.9006264 35.0224651,52.1682543 35.0825891,52.4080992 C35.1748372,52.775138 35.3276434,53.1272 35.4190233,53.4944558 C35.6530078,54.4349519 35.1199225,55.4214636 34.1666202,55.5677581 C31.5485116,55.9697426 28.9694729,55.9276341 26.5948992,54.5122233 C26.4086667,54.4013085 26.2048527,54.3038512 26.0522636,54.1558202 C25.393938,53.5189829 24.738,53.2216186 23.9153643,53.9307349 C23.7119845,54.1063318 23.3271473,54.1599442 23.038031,54.1338977 C20.4928527,53.9042543 17.9554884,53.5947349 15.653845,52.3714171 C14.2193333,51.6086884 12.9306822,50.659293 12.1653488,49.1492465 C11.7931008,48.4147349 11.8117674,47.7334016 12.3012248,47.0640062 C13.3252868,45.6624868 13.717938,44.1020837 13.6072403,42.3658667 C13.4507442,39.9120682 13.3600155,37.4534946 13.2810078,34.9955721 C13.262124,34.4064868 13.3765116,33.8082853 13.477876,33.2224558 C13.5230233,32.9611225 13.5212868,32.8137426 13.2718915,32.6507349 C11.5157054,31.5027349 10.5548062,29.8756961 10.2774109,27.7900217 C10.1526047,26.8503938 9.42460465,26.2556651 8.58937984,25.9648124 C7.29682171,25.515293 5.96931783,25.1441302 4.63248062,24.8504558 C3.25223256,24.547231 2.03390698,24.0519132 1.0704031,22.9596961 C0.327209302,22.1177426 -0.0713023256,21.2625488 0.388635659,20.1507969 C0.444635659,20.0157891 0.392108527,19.8035101 0.326124031,19.6554791 C-0.424449612,17.971355 0.131209302,16.3566884 1.88327132,15.7817116 C3.73083721,15.1754791 5.64308527,14.7396341 7.55337984,14.3610915 C8.68141085,14.1375256 9.72956589,14.5282233 10.5691318,15.3801612 C10.6976279,15.5106109 10.9329147,15.5939597 11.1202326,15.5959132 C11.4590543,15.6000372 11.7985271,15.5264558 12.2089767,15.4765333 C12.1364806,15.1092775 12.0759225,14.763293 11.9997364,14.4205643 C11.7522946,13.3092465 11.4894419,12.2014016 11.2515504,11.0879132 C10.973938,9.78949457 11.7991783,8.80645581 13.1212558,8.89045581 C14.1129767,8.9536186 15.1005736,9.08211473 16.090124,9.17957209 C16.8480775,9.25445581 17.3331938,9.66164961 17.649876,10.3503628 C17.7926977,10.6611845 18.0210388,10.9867659 18.2997364,11.1699597 C18.9331008,11.5864868 19.246093,11.455169 19.5332558,10.7749209 C19.9849457,9.70375814 20.8624961,9.07972713 21.870062,8.62456434 C22.6427752,8.27554109 23.4424031,7.98447132 24.2372558,7.68688992 C24.6121085,7.54645581 24.7434264,7.31898295 24.7527597,6.91178915 C24.7829302,5.60230078 24.9878295,4.3208124 25.5543411,3.12050233 C26.7642016,0.557525581 29.2286357,0.0316031008 31.2428992,0.268192248 Z M27.0326977,4.15845581 C26.7075504,5.1176186 26.5573488,6.16338605 26.5026512,7.17963411 C26.4492558,8.16831628 25.9925736,8.77498295 25.1638605,9.15092093 C24.3423101,9.5236031 23.485814,9.81836279 22.6557984,10.1728124 C21.2885736,10.7564713 20.9679845,11.2902078 21.0545891,12.7555411 C21.0565426,12.787231 21.0304961,12.8206574 20.9916434,12.9187659 C20.5668682,12.9851845 20.1088837,13.0974016 19.6463411,13.1212775 C18.0522946,13.2037581 16.7638605,12.7060527 16.0664651,11.1443473 C16.021969,11.0447194 15.9086667,10.9179597 15.8155504,10.907107 C14.8687597,10.7974946 13.9195814,10.7091535 12.9233023,10.6099597 C13.4077674,12.7718202 13.8766047,14.863138 14.3562946,17.0045953 C12.7835194,17.171293 11.2667442,17.3321302 9.77189147,17.4905798 C9.29589147,16.2522853 8.60869767,15.8650605 7.36649612,16.1194481 C6.53496124,16.2898357 5.70928682,16.4921302 4.88751938,16.7052775 C4.08376744,16.9136496 3.27155039,17.1081302 2.49362791,17.3929054 C1.70355039,17.6822388 1.55031008,18.2009984 1.94448062,18.9461457 C2.06212403,19.1686264 2.21666667,19.3715721 2.35644961,19.5821147 C2.69657364,20.0945798 2.66857364,20.3114171 2.18714729,20.6765023 C1.84702326,20.9343628 1.85331783,21.2258667 2.11617054,21.5086884 C2.74454264,22.1841612 3.36987597,22.8667969 4.3715814,22.9885643 C4.7104031,23.0295876 5.04466667,23.1261767 5.37437209,23.2208124 C6.70925581,23.6039132 8.08494574,23.8893395 9.36252713,24.4139597 C10.7308372,24.9759132 11.7950543,25.9932465 12.0029922,27.547355 C12.2384961,29.3063628 13.1082326,30.5650605 14.6076434,31.4436961 C15.0115814,31.6802853 15.4048837,31.9355411 15.8029612,32.1823318 L15.5926357,32.0644713 L15.5926357,32.0644713 C15.5362016,32.2359442 15.458062,32.4035101 15.4263721,32.579324 C15.2798605,33.3947969 15.0176589,34.2143938 15.0317674,35.0285643 C15.074093,37.4684713 15.1945581,39.9081612 15.3445426,42.3439442 C15.4669612,44.3321612 15.0252558,46.151076 13.9037364,47.7889674 C13.6647597,48.1384248 13.678,48.3867349 13.8991783,48.7016806 C14.6725426,49.8027969 15.7452248,50.5229829 16.9403256,51.0734326 C18.8269612,51.9425178 20.8646667,52.1602233 22.8947752,52.3903008 C23.0714574,52.4100527 23.2893798,52.3254016 23.4456589,52.2238202 C24.5906202,51.4812775 25.4562326,51.4699907 26.5033023,52.3403783 C28.6367287,54.1130605 31.1031163,54.2094326 33.7171008,53.8947039 C33.6257209,53.5997271 33.5204496,53.3481612 33.4724806,53.0861767 C33.3793643,52.575014 33.1885736,52.0375876 33.2667132,51.5474791 C33.5543101,49.7441922 34.6096279,48.4980837 36.3115504,47.8475721 C36.6976899,47.6999752 37.158062,47.7160372 37.5845736,47.7134326 C38.0056589,47.7103938 38.2665581,47.8927194 38.3084496,48.3891225 C38.3514264,48.9009364 38.6246977,49.0517891 39.1046047,48.8583938 C40.4240775,48.327262 41.6916744,48.6083473 42.7793333,49.3241922 C44.034124,50.1500837 45.309969,50.1578977 46.6730698,49.9158822 C47.2278605,49.8171225 47.6708682,49.5544868 48.0257519,49.0962853 C48.9588682,47.8905488 49.9846667,46.8046264 51.6724806,46.7295256 C51.769938,45.7006884 51.8634884,44.715045 51.9633333,43.6605953 C51.7206667,43.6605953 51.5270543,43.6655876 51.333876,43.6595101 C50.8463721,43.6438822 50.3536589,43.6627659 49.8728837,43.5954791 C48.9838295,43.4715411 48.6165736,42.9388899 48.7958605,42.0637271 C48.8787752,41.6587039 49.0357054,41.2693085 49.1414109,40.8681922 C49.3137519,40.2137736 49.1262171,39.9109829 48.5230233,39.619262 C48.1535969,39.4404093 47.8362636,39.1543318 47.4062791,38.8543628 C48.3867132,38.3236651 49.2217209,37.8715411 50.0908062,37.4011845 C49.5766047,36.639107 49.077814,35.9308589 48.6193953,35.1969984 C48.5212868,35.0400682 48.4917674,34.7568124 48.5646977,34.5914171 C48.8694419,33.9037891 48.9436744,33.1979287 48.826031,32.4694946 C48.6677984,31.4899287 48.1718295,31.0200062 47.1798915,30.8965023 C46.6281395,30.8279132 46.0733488,30.7838512 45.4462791,30.7213395 C46.7481705,28.7342078 48.0038295,26.8182698 49.3117984,24.8218047 C49.4967287,24.843076 49.8359845,24.8899597 50.1765426,24.9188279 C50.9483876,24.9839442 51.0988062,24.8472 51.1276744,24.0679752 C51.1973488,22.1906729 51.5248837,20.3758822 52.3273333,18.6557271 C52.8523876,17.5303008 53.3108062,16.3736186 53.8182791,15.1852465 C53.6083876,15.1285953 53.4382171,15.0808434 53.2673953,15.0367814 C51.7627752,14.6486884 50.2496899,14.2903318 48.7585271,13.8566574 C48.2968527,13.7223008 47.7325116,13.4874481 47.4967907,13.1184558 C46.8714574,12.1401922 46.0631473,11.8478202 44.9631163,11.9782698 C42.4548372,12.2760682 40.8482016,11.0132465 40.4974419,8.53123101 C40.4696589,8.33197519 40.3904341,8.13988217 40.3257519,7.91284341 C39.578,8.25861085 38.902093,8.57116899 38.1823411,8.90391318 C38.1013798,8.47566512 38.0091318,8.12533953 37.9744031,7.76915349 C37.9240465,7.24995969 37.6983101,6.98233178 37.1723876,6.79088992 C34.6734419,5.88056434 32.4926977,4.52180465 31.074031,2.16871938 C31.0119535,2.0656186 30.857845,1.95947907 30.7430233,1.95557209 C29.1934729,1.9023938 27.6400155,2.36710698 27.0326977,4.15845581 Z M39.3359411,18.8754078 C41.0085612,18.8769271 42.1007783,19.9572062 42.1033829,21.6170202 C42.1098946,25.8656403 42.1101116,30.1142605 42.1033829,34.3633147 C42.1005612,36.020307 41.0055225,37.1001519 39.3346388,37.1038419 C36.4779876,37.1101364 33.6213364,37.1053612 30.7646853,37.1053612 C27.9803132,37.1055783 25.1959411,37.1073147 22.411569,37.1051442 C20.5972124,37.1034078 19.5349488,36.0530822 19.5338636,34.2534853 C19.5308248,30.0591287 19.5303907,25.864338 19.5340806,21.6699814 C19.5353829,19.968276 20.6147938,18.876493 22.3041271,18.8751907 C27.9813984,18.8710667 33.6586698,18.8708496 39.3359411,18.8754078 Z" id="Fill-4" fill="#253138"></path>
                            <polygon id="Fill-6" fill="#FFFFFF" points="27.8185426 35.3251473 33.8294264 35.3251473 33.8294264 20.6366512 27.8185426 20.6366512"></polygon>
                            <path d="M25.9997364,35.3681891 C24.6924186,35.3681891 23.4278605,35.3805612 22.1637364,35.3629798 C21.5683566,35.3547318 21.2733798,34.9905147 21.2714264,34.3100496 C21.2662171,32.2664837 21.2692558,30.2231349 21.2692558,28.179786 C21.2694729,26.0279101 21.2675194,23.8760341 21.2720775,21.7241581 C21.273814,20.8989178 21.562062,20.6126233 22.3777519,20.6104527 C23.570031,20.607414 24.762093,20.6095845 25.9997364,20.6095845 L25.9997364,35.3681891 Z" id="Fill-8" fill="#165EAD"></path>
                            <path d="M35.6104217,35.3641519 L35.6104217,20.6680589 C35.7332744,20.6487411 35.8520031,20.6140124 35.9705147,20.6135783 C37.1100496,20.6090202 38.2493674,20.6035938 39.3886853,20.6127101 C40.0326853,20.6177023 40.3647783,20.9441519 40.3654295,21.5820744 C40.3697705,25.8502295 40.3689023,30.1186016 40.3641271,34.3867566 C40.363476,34.9617333 40.0693674,35.3459194 39.5612434,35.3556868 C38.2628248,35.3810822 36.963538,35.3641519 35.6104217,35.3641519" id="Fill-9" fill="#C2272D"></path>
                        </g>
                    </g>
                </g>
            </g>
        </g>
    </g>
</svg>