<?xml version="1.0" encoding="UTF-8"?>
<svg width="53px" height="52px" viewBox="0 0 53 52" version="1.1" xmlns="http://www.w3.org/2000/svg" xmlns:xlink="http://www.w3.org/1999/xlink">
    <!-- Generator: Sketch 62 (91390) - https://sketch.com -->
    <title>Combined Shape</title>
    <desc>Created with Sketch.</desc>
    <g id="DESKTOP" stroke="none" stroke-width="1" fill="none" fill-rule="evenodd">
        <g id="SEO-Geolocalisee" transform="translate(-825.000000, -3125.000000)" fill="#253138">
            <g id="Bloc-réassurance" transform="translate(0.000000, 2895.000000)">
                <g id="01-copy" transform="translate(809.000000, 230.000000)">
                    <g id="fr">
                        <path d="M27.1974555,5.91717742 C27.7368083,5.91717742 28.1037258,6.28750579 28.1037258,6.83113842 C28.1037258,7.37477105 27.7368083,7.74509942 27.1974555,7.74509942 L19.7424236,7.74509942 C18.6611196,7.74509942 17.8125404,8.60179942 17.8125404,9.6942721 L17.7886177,37.2473921 L66.2404323,37.2713062 L66.2404323,9.69420962 C66.2404323,8.60179942 65.3918532,7.74509942 64.3105491,7.74509942 L56.8547069,7.74509942 C56.3157969,7.74509942 55.9484367,7.37440003 55.9484367,6.83113842 C55.9484367,6.28787682 56.3157969,5.91717742 56.8547069,5.91717742 L64.3105491,5.91717742 C66.3550873,5.91717742 68.0460797,7.55836206 68.2150387,9.69420962 L68.2150387,41.2697949 C68.2150387,43.3598636 66.5596094,45.0468271 64.4724655,45.0468269 L52.9301678,45.0228418 L49.3624639,45.0228419 L51.0211444,50.172078 L55.9641547,50.172078 C56.5034327,50.172078 56.8704249,50.5423303 56.8704249,51.086039 C56.8704249,51.6293006 56.5030647,52 55.9641547,52 L28.169851,52 C27.6304982,52 27.2635808,51.6296716 27.2635808,51.086039 C27.2635808,50.5419596 27.6301305,50.172078 28.1700903,50.1720784 L33.0220278,50.2371345 L34.3918666,46.2269193 L34.7875272,45.0468271 L19.7424236,45.0468271 C17.6896582,45.0468271 16,43.3165997 16,41.2697949 L16,9.69420962 C16,7.59633831 17.6634447,5.91717742 19.7424236,5.91717742 L27.1974555,5.91717742 Z M36.7687146,44.9830082 L35.3512129,48.9545024 L34.9244302,50.172078 L49.1064136,50.172078 L47.455587,45.046827 L36.7687146,44.9830082 Z M66.263652,39.0752786 L17.8125404,39.0752786 L17.8125404,41.2697949 C17.8125404,42.3178455 18.697389,43.2189051 19.7424236,43.2189051 L64.3105491,43.2189051 C65.3555837,43.2189051 66.2404323,42.3178455 66.2404364,41.2690334 L66.263652,39.0752786 Z M62.6871478,39.7194322 C63.2784998,39.7194322 63.6823447,40.1074226 63.6823447,40.6788388 C63.6823447,41.250255 63.2784998,41.6382454 62.6871478,41.6382454 L60.1683308,41.6382454 C59.5764885,41.6382454 59.1731338,41.2506466 59.1731338,40.6788388 C59.1731338,40.107031 59.5764885,39.7194322 60.1683308,39.7194322 L62.6871478,39.7194322 Z M56.642699,39.7194322 C57.2346502,39.7194322 57.6380833,40.1070271 57.6380833,40.6788388 C57.6380833,41.2506505 57.2346502,41.6382454 56.642699,41.6382454 L54.1242567,41.6382454 C53.580804,41.6382454 53.1288724,41.2132436 53.1288724,40.6788388 C53.1288724,40.1070271 53.5323055,39.7194322 54.1242567,39.7194322 L56.642699,39.7194322 Z M50.5024969,39.7194322 C51.0939578,39.7194322 51.4978812,40.1074187 51.4978812,40.6788388 C51.4978812,41.2502589 51.0939578,41.6382454 50.5024969,41.6382454 L47.9840546,41.6382454 C47.4406019,41.6382454 46.9886703,41.2132436 46.9886703,40.6788388 C46.9886703,40.1066351 47.3916129,39.7194322 47.9840546,39.7194322 L50.5024969,39.7194322 Z M53.2929814,-1.27897692e-13 C53.8232065,-1.27897692e-13 54.1842196,0.362209715 54.1842196,0.893930487 L54.1842196,32.9731216 C54.1842196,33.5048424 53.8232065,33.8670521 53.2929814,33.8670521 C52.8422879,33.8670521 52.4017432,33.4250452 52.4017432,32.9730664 L52.4256732,1.78775121 L36.8467329,1.76398566 L36.8467329,6.16066336 C36.8467329,6.69238413 36.4857198,7.05459385 35.9551051,7.05459279 L31.597769,7.03099935 L31.597769,32.9731216 C31.597769,33.5048424 31.2367559,33.8670521 30.7065308,33.8670521 C30.1763058,33.8670521 29.8152926,33.5048424 29.8152926,32.9731216 L29.8152926,6.16066336 C29.8152926,6.08102279 29.8178698,6.03748519 29.8265306,5.98534463 C29.8421368,5.89139034 29.8735743,5.81907921 29.8948224,5.84146743 C29.8948224,5.74320741 29.9372651,5.67943702 30.0818964,5.53431624 L35.3308316,0.267612047 C35.3710604,0.227247008 35.4037482,0.205560918 35.475059,0.169784829 C35.5287355,0.142855713 35.5461023,0.131411533 35.5694209,0.108014081 C35.6201625,0.0571006887 35.6907539,0.0263157588 35.7806107,0.0112889207 C35.8152937,0.00548885861 35.8461598,0.00240491455 35.8864163,0.000993403189 L53.2929814,-1.27897692e-13 Z M49.7396644,28.4943753 C50.3024392,28.4943753 50.730356,28.9029016 50.730356,29.4537819 C50.730356,30.0238384 50.3631417,30.4131884 49.8210054,30.4131884 L40.2227683,30.4131884 C39.680632,30.4131884 39.3134177,30.0238384 39.3134177,29.4537819 C39.3134177,28.8837254 39.680632,28.4943753 40.2227683,28.4943753 L49.7396644,28.4943753 Z M36.8829211,28.4943753 C37.3737636,28.4943753 37.7783672,28.9214736 37.7783672,29.4537819 C37.7783672,30.023566 37.4170492,30.4131884 36.8829211,30.4131884 L34.1646024,30.4131884 C33.6304742,30.4131884 33.2691563,30.023566 33.2691563,29.4537819 C33.2691563,28.8839977 33.6304742,28.4943753 34.1646024,28.4943753 L36.8829211,28.4943753 Z M49.7396644,23.3135798 C50.3024392,23.3135798 50.730356,23.7221061 50.730356,24.2729864 C50.730356,24.8430429 50.3631417,25.2323929 49.8210054,25.2323929 L40.2227683,25.2323929 C39.680632,25.2323929 39.3134177,24.8430429 39.3134177,24.2729864 C39.3134177,23.7029298 39.680632,23.3135798 40.2227683,23.3135798 L49.7396644,23.3135798 Z M36.8829211,23.3135798 C37.3737636,23.3135798 37.7783672,23.7406781 37.7783672,24.2729864 C37.7783672,24.8427705 37.4170492,25.2323929 36.8829211,25.2323929 L34.1646024,25.2323929 C33.6304742,25.2323929 33.2691563,24.8427705 33.2691563,24.2729864 C33.2691563,23.7032022 33.6304742,23.3135798 34.1646024,23.3135798 L36.8829211,23.3135798 Z M36.8829211,18.9962502 C37.3737636,18.9962502 37.7783672,19.4233485 37.7783672,19.9556568 C37.7783672,20.525441 37.4170492,20.9150633 36.8829211,20.9150633 L34.1646024,20.9150633 C33.6304742,20.9150633 33.2691563,20.525441 33.2691563,19.9556568 C33.2691563,19.3858726 33.6304742,18.9962502 34.1646024,18.9962502 L36.8829211,18.9962502 Z M49.7396644,18.9962502 C50.3024392,18.9962502 50.730356,19.4047765 50.730356,19.9556568 C50.730356,20.5257133 50.3631417,20.9150633 49.8210054,20.9150633 L40.2227683,20.9150633 C39.680632,20.9150633 39.3134177,20.5257133 39.3134177,19.9556568 C39.3134177,19.3856003 39.680632,18.9962502 40.2227683,18.9962502 L49.7396644,18.9962502 Z M36.8829211,13.8154547 C37.3737636,13.8154547 37.7783672,14.242553 37.7783672,14.7748613 C37.7783672,15.3446454 37.4170492,15.7342678 36.8829211,15.7342678 L34.1646024,15.7342678 C33.6304742,15.7342678 33.2691563,15.3446454 33.2691563,14.7748613 C33.2691563,14.2050771 33.6304742,13.8154547 34.1646024,13.8154547 L36.8829211,13.8154547 Z M49.7396644,13.8154547 C50.3024392,13.8154547 50.730356,14.223981 50.730356,14.7748613 C50.730356,15.3449178 50.3631417,15.7342678 49.8210054,15.7342678 L40.2227683,15.7342678 C39.680632,15.7342678 39.3134177,15.3449178 39.3134177,14.7748613 C39.3134177,14.2048047 39.680632,13.8154547 40.2227683,13.8154547 L49.7396644,13.8154547 Z M36.8829211,9.4981251 C37.3737636,9.4981251 37.7783672,9.92522338 37.7783672,10.4575317 C37.7783672,11.0273159 37.4170492,11.4169382 36.8829211,11.4169382 L34.1646024,11.4169382 C33.6304742,11.4169382 33.2691563,11.0273159 33.2691563,10.4575317 C33.2691563,9.8877475 33.6304742,9.4981251 34.1646024,9.4981251 L36.8829211,9.4981251 Z M49.7396644,9.4981251 C50.3024392,9.4981251 50.730356,9.90665143 50.730356,10.4575317 C50.730356,11.0275882 50.3631417,11.4169382 49.8210054,11.4169382 L40.2227683,11.4169382 C39.680632,11.4169382 39.3134177,11.0275882 39.3134177,10.4575317 C39.3134177,9.88747516 39.680632,9.4981251 40.2227683,9.4981251 L49.7396644,9.4981251 Z M35.088251,3.01721559 L32.8441466,5.26890745 L35.0654203,5.29004125 L35.088251,3.87662282 L35.088251,3.01721559 Z" id="Combined-Shape"></path>
                    </g>
                </g>
            </g>
        </g>
    </g>
</svg>