<?xml version="1.0" encoding="UTF-8"?>
<svg width="46px" height="56px" viewBox="0 0 46 56" version="1.1" xmlns="http://www.w3.org/2000/svg" xmlns:xlink="http://www.w3.org/1999/xlink">
    <!-- Generator: Sketch 62 (91390) - https://sketch.com -->
    <title>Combined Shape</title>
    <desc>Created with Sketch.</desc>
    <g id="DESKTOP" stroke="none" stroke-width="1" fill="none" fill-rule="evenodd">
        <g id="SEO-Geolocalisee" transform="translate(-829.000000, -3315.000000)" fill="#253138">
            <g id="Bloc-réassurance" transform="translate(0.000000, 2895.000000)">
                <g id="01-copy-3" transform="translate(809.000000, 420.000000)">
                    <g id="fr">
                        <path d="M42.343913,0.000525102597 L42.7756454,0.00167003069 L43.217457,0.00167003069 C44.7259772,0.0265971439 46.2155871,0.344632726 47.5779827,0.931709219 L47.5779827,0.931709219 L47.651045,0.937726108 C51.8869351,2.85109693 53.7685024,7.06807684 54.1140437,11.5386257 C54.4183264,11.6142665 54.6959629,11.7750034 54.9177282,12.0062239 C55.3303149,12.5228168 55.5374678,13.1709218 55.5013665,13.822465 L55.5013665,13.822465 L55.5013665,14.7009308 C55.5125407,15.1754055 55.3827478,15.6438633 55.123162,15.9696349 C55.5065238,16.3976936 55.7188341,16.952107 55.7188341,17.5262901 L55.7188341,17.5262901 L55.7188341,19.5857854 C55.7188341,20.8966078 54.6529851,21.9598781 53.3361459,21.9598781 C53.1504819,21.9564398 52.9656774,21.9332318 52.7851707,21.8902541 L52.7851707,21.8902541 L52.6072427,21.8403998 L52.6072427,23.0369013 C52.6098214,25.8614011 51.2396897,28.5148493 48.9601482,30.1067463 L48.9601482,30.1067463 L48.9111535,31.7158344 C50.2099421,32.0536398 51.3720613,32.3794114 52.666552,32.7894194 C52.7353165,32.7971554 52.8006427,32.8109083 52.8633903,32.8341163 L52.8633903,32.8341163 L53.4521859,33.0395501 C54.4372366,33.3455519 55.4351807,33.6919528 56.3686581,34.0512471 L56.3686581,34.0512471 L57.0004315,34.2730124 C57.0838084,34.3022373 57.1603089,34.343496 57.21618,34.389912 C58.3026583,34.8059369 59.3401419,35.3414401 60.3122993,35.989545 C61.5878799,36.9066909 62.5488631,38.5888412 63.2416649,40.748045 C63.6662854,42.0683224 63.9121183,43.2983465 64.015265,44.1140648 L64.015265,44.1140648 L65.4696331,55.0665226 L65.413762,55.1387253 L63.8940676,55.3372826 L63.821865,55.2822711 L62.3666373,44.341847 C62.0185173,41.6385446 60.8864825,38.4444359 59.3289677,37.3166989 C58.8768414,37.0021015 58.405805,36.7236055 57.9175774,36.4820704 L57.9175774,36.4820704 L57.5496876,36.3075806 L57.5084289,42.7121296 C59.0186681,43.2674025 60.082798,44.6487084 60.082798,46.7529006 L60.082798,46.7529006 L60.082798,55.1782648 C60.082798,55.6312506 59.7157677,56 59.2602033,56 L59.2602033,56 L26.2446716,56 C25.7899667,56 25.4212173,55.6312506 25.4212173,55.1782648 L25.4212173,55.1782648 L25.4212173,46.7382881 C25.4212173,44.6306577 26.4827685,43.2493518 27.9534682,42.7568265 L27.9534682,42.7568265 L27.9534682,36.2886704 C27.3105206,36.5637282 26.6950788,36.8946571 26.1157383,37.279738 C24.5779933,38.4160705 23.4554136,41.6024433 23.1012767,44.3074648 L23.1012767,44.3074648 L21.6477681,55.2667991 L21.5755655,55.3226702 L20.0558711,55.1258319 L20,55.0536293 L21.4535086,44.094295 C21.5110988,43.6808488 21.5824419,43.2596665 21.7199708,42.6330504 C21.9425957,41.6187748 22.2365637,40.6105161 22.61133,39.6675835 C23.2697496,38.0112198 24.1095355,36.7296224 25.1599124,35.966337 C26.2008343,35.2795521 27.3105206,34.714824 28.4898309,34.2790293 L28.4898309,34.2790293 L28.5010051,34.2833271 C31.1063183,33.2810852 33.7786767,32.4241083 36.4544734,31.7777224 L36.4544734,31.7777224 L36.4811196,30.1136227 C34.2170501,28.4684333 32.8770028,25.8450695 32.8718455,23.0515137 L32.8718455,23.0515137 L32.8718455,21.849855 C32.6346082,21.9280745 32.3896348,21.9684736 32.1420828,21.9684736 C30.8269627,21.9684736 29.7611137,20.9069224 29.7611137,19.5961001 L29.7611137,19.5961001 L29.7611137,17.532307 C29.7611137,16.9607025 29.9734239,16.4054296 30.3490497,16.0495736 C30.0963404,15.6481611 29.9682666,15.1805628 29.9803004,14.7086668 L29.9803004,14.7086668 L29.9803004,13.8061334 C29.951935,13.143416 30.1771386,12.4944515 30.6112142,11.9812968 C30.8261031,11.7552337 31.1054587,11.5944968 31.3641849,11.5764461 C31.7286365,6.82912037 33.8113398,2.38607734 38.5199855,0.663527863 L38.5199855,0.663527863 L38.534598,0.666966086 C39.9004319,0.197648714 41.3358898,-0.0275548606 42.7756454,0.00167003069 Z M32.0569868,34.7560827 C31.2902632,35.0044943 30.5647982,35.2554845 29.9184124,35.471233 L29.9184124,35.471233 L29.6020959,35.5760988 L29.6020959,43.3550772 C29.6020959,43.7650852 29.3003919,44.1132052 28.8946816,44.1690764 C28.5964158,44.2223688 28.2525936,44.3538808 27.9173669,44.6332364 C27.4222628,45.0449635 27.1145419,45.6664223 27.0732833,46.5457477 L27.0732833,46.5457477 L27.0681259,46.7529006 L27.0681259,54.3685634 L58.436749,54.3685634 L58.436749,46.7529006 C58.436749,45.0037049 57.5393729,44.295431 56.606755,44.1690764 C56.2311292,44.1209412 55.9405994,43.8192372 55.8976216,43.4487687 L55.8976216,43.4487687 L55.8924643,43.3550772 L55.9354421,35.6362676 L53.4633601,34.7732738 L53.4633601,43.6266968 C53.4633601,44.0487386 53.144465,44.3977182 52.7344569,44.4449937 L52.7344569,44.4449937 L52.6381867,44.4510106 L32.8821602,44.4510106 C32.4583993,44.4510106 32.1102792,44.1321155 32.0621441,43.722967 L32.0621441,43.722967 L32.0569868,43.6266968 Z M32.3126186,45.5558834 C32.704576,45.5558834 33.021752,45.8730594 33.021752,46.2650168 C33.021752,46.6561146 32.704576,46.9741502 32.3126186,46.9741502 L32.3126186,46.9741502 L29.3041739,46.9741502 C28.9122166,46.9741502 28.5950405,46.6561146 28.5950405,46.2650168 C28.5950405,45.8730594 28.9122166,45.5558834 29.3041739,45.5558834 L29.3041739,45.5558834 Z M56.3801762,45.5558834 C56.771274,45.5558834 57.0893096,45.8730594 57.0893096,46.2650168 C57.0893096,46.6561146 56.771274,46.9741502 56.3801762,46.9741502 L56.3801762,46.9741502 L53.3717315,46.9741502 C52.9797741,46.9741502 52.6625981,46.6561146 52.6625981,46.2650168 C52.6625981,45.8730594 52.9797741,45.5558834 53.3717315,45.5558834 L53.3717315,45.5558834 Z M48.5011455,33.2673323 L42.7954152,40.5391729 L42.6948472,40.5400325 L36.9908361,33.2896808 C36.1527693,33.5071484 35.143651,33.7865039 34.0924145,34.1011013 L34.0924145,34.1011013 L33.6961594,34.2205795 L33.6789682,42.804102 L51.7906649,42.804102 L51.8353617,34.2532426 C50.6500345,33.8844933 49.7234336,33.6274861 48.5011455,33.2673323 L48.5011455,33.2673323 Z M38.0859099,31.053117 L38.0730166,32.0656736 L42.7343868,37.9424554 L47.3295712,32.1060727 L47.3295712,31.084061 C46.3281888,31.523294 45.2528848,31.7699864 44.1621087,31.8112451 L44.1621087,31.8112451 L43.834618,31.817262 L41.6453298,31.817262 C40.4170248,31.8164024 39.2041918,31.5559571 38.0859099,31.053117 L38.0859099,31.053117 Z M50.9886995,17.4609639 L34.5007034,17.4609639 L34.5007034,23.0506542 C34.5058608,26.9100589 37.5856486,30.0482965 41.4270027,30.1643365 L41.4270027,30.1643365 L41.6453298,30.1677776 L43.834618,30.1677776 C47.7077756,30.171213 50.8632043,27.1034589 50.9844017,23.2689813 L50.9844017,23.2689813 L50.9886995,23.0515137 L50.9886995,17.4609639 Z M53.3902979,16.7337799 L53.2974659,16.735499 C52.9261378,16.766443 52.643344,17.0672874 52.6261529,17.4334581 L52.6261529,17.4334581 L52.6270125,17.5262901 L52.6270125,19.5875045 C52.6562374,19.942501 52.9407503,20.2261544 53.2974659,20.2553793 C53.6687939,20.2846042 53.9988633,20.0310352 54.0710659,19.6811961 L54.0710659,19.6811961 L54.0839593,19.5918023 L54.0848188,17.5185541 C54.088257,17.4815933 54.088257,17.4429133 54.0839593,17.4033737 C54.0581726,17.0655683 53.8003059,16.7982465 53.4788321,16.743235 L53.4788321,16.743235 L53.3902979,16.7337799 Z M32.1584143,16.7337799 L32.0664419,16.735499 C31.6942543,16.766443 31.4097414,17.068147 31.3942694,17.4334581 L31.3942694,17.4334581 L31.3959885,17.5262901 L31.3959885,19.5806281 C31.4252134,19.9390628 31.7097263,20.2218566 32.0664419,20.2493624 C32.4351913,20.2794468 32.7644011,20.0258779 32.8391824,19.6734601 L32.8391824,19.6734601 L32.8520757,19.5832068 L32.8520757,17.5202733 C32.855514,17.4824528 32.855514,17.4429133 32.8520757,17.4033737 C32.8254295,17.0655683 32.5684224,16.7982465 32.2469486,16.743235 L32.2469486,16.743235 L32.1584143,16.7337799 Z M38.0008139,2.71184892 C35.838172,3.8688108 34.4293603,5.84664829 33.629114,8.33592139 C33.3394438,9.23673568 33.149482,10.1478646 33.041178,11.0271901 C32.9724135,11.5833225 32.9466268,12.0397466 32.9466268,12.3139448 C32.9466268,12.7359866 32.6277317,13.0849662 32.2177237,13.1322418 L32.2177237,13.1322418 L32.1214534,13.1382587 L31.820609,13.1373991 C31.7965414,13.1348205 31.7767716,13.1399778 31.7759121,13.13568 C31.681361,13.2895405 31.6254899,13.4631707 31.6108774,13.646256 L31.6108774,13.646256 L31.6082987,13.7846445 L31.6082987,14.7086668 C31.5893885,14.8883139 31.6401023,15.0696802 31.6856587,15.1891584 C31.7836481,15.1711077 31.8799183,15.159074 31.9770481,15.1530571 L31.9770481,15.1530571 L32.1214534,15.1487593 L32.1334872,15.1539166 C32.7050917,15.1496188 33.2569264,15.3516144 33.6531816,15.7057513 L33.6531816,15.7057513 L33.7666429,15.816634 L51.6668888,15.8355442 C52.2161449,15.2811309 53.0086552,15.0387362 53.7134908,15.2123664 C53.8037441,15.0997646 53.8570366,14.9613762 53.863913,14.8143921 L53.863913,14.8143921 L53.8613344,14.7017904 L53.8613344,13.7983974 C53.8707895,13.6084356 53.8346881,13.4244907 53.7573281,13.2542987 L53.7573281,13.2542987 L53.6911423,13.1339609 C53.6808277,13.1373991 53.678249,13.1373991 53.6739512,13.1373991 L53.6739512,13.1373991 L53.6421477,13.1382587 L53.3481796,13.1382587 C52.8934747,13.1382587 52.5238658,12.7686498 52.5238658,12.3139448 C52.5238658,12.0663928 52.4997982,11.636615 52.4379102,11.1174434 C52.3407805,10.300006 52.1731671,9.44732681 51.9170195,8.59550719 C51.2431279,6.35464567 50.0844469,4.49456729 48.3335321,3.25422852 L48.3335321,3.25422852 L48.091997,3.08833429 L48.091997,6.24118433 C48.0962948,6.35894345 48.068789,6.47842168 48.0163561,6.59446169 C47.8298325,6.97610439 47.4739765,7.47120843 46.8826022,7.96717202 C45.9173213,8.77515431 44.6503363,9.25736502 43.0481246,9.25736502 C41.4158284,9.25736502 40.134231,8.7579632 39.1655118,7.92677291 C38.6007838,7.44198354 38.2689953,6.97438527 38.0807526,6.59446169 C38.041213,6.51194435 38.0154264,6.42426967 38.0051117,6.33401633 L38.0051117,6.33401633 L38.0008139,6.24376299 Z M42.2306872,1.64771906 C41.4811547,1.67264617 40.7393582,1.77407373 40.0138932,1.95028264 L40.0138932,1.95028264 L39.6528798,2.04483376 L39.6417056,6.02371675 C40.2012763,6.82912037 41.060832,7.37321909 42.0226747,7.53997288 L42.0226747,7.53997288 L42.2306872,7.57005732 Z M43.8784553,1.68725861 L43.8784553,7.55028754 C44.8531914,7.43768576 45.7393932,6.94172216 46.3324866,6.20336388 L46.3324866,6.20336388 L46.4554031,6.04090786 L46.4975213,2.26659911 C45.650859,1.95715908 44.7689549,1.7611804 43.8784553,1.68725861 L43.8784553,1.68725861 Z" id="Combined-Shape"></path>
                    </g>
                </g>
            </g>
        </g>
    </g>
</svg>