<svg width="32px" height="32px" viewBox="0 0 32 32" version="1.1" 
  xmlns="http://www.w3.org/2000/svg" 
  xmlns:xlink="http://www.w3.org/1999/xlink">
  <path d="M16,2.88125 C20.275,2.88125 20.78125,2.9 22.4625,2.975 C24.025,3.04375 24.86875,3.30625 25.43125,3.525 C26.175,3.8125 26.7125,4.1625 27.26875,4.71875 C27.83125,5.28125 28.175,5.8125 28.46875,6.55625 C28.6875,7.11875 28.95,7.96875 29.01875,9.525 C29.09375,11.2125 29.1125,11.71875 29.1125,15.9875 C29.1125,20.25625 29.09375,20.76875 29.01875,22.45 C28.95,24.0125 28.6875,24.85625 28.46875,25.41875 C28.18125,26.1625 27.83125,26.7 27.275,27.25625 C26.7125,27.81875 26.18125,28.1625 25.4375,28.45625 C24.875,28.675 24.025,28.9375 22.46875,29.00625 C20.78125,29.08125 20.275,29.1 16.00625,29.1 C11.7375,29.1 11.225,29.08125 9.54375,29.00625 C7.98125,28.9375 7.1375,28.675 6.575,28.45625 C5.83125,28.16875 5.29375,27.81875 4.7375,27.2625 C4.175,26.7 3.83125,26.16875 3.5375,25.425 C3.31875,24.8625 3.05625,24.0125 2.9875,22.45625 C2.9125,20.76875 2.89375,20.2625 2.89375,15.99375 C2.89375,11.725 2.9125,11.2125 2.9875,9.53125 C3.05625,7.96875 3.31875,7.125 3.5375,6.5625 C3.825,5.81875 4.175,5.28125 4.73125,4.725 C5.29375,4.1625 5.825,3.81875 6.56875,3.525 C7.13125,3.30625 7.98125,3.04375 9.5375,2.975 C11.21875,2.9 11.725,2.88125 16,2.88125 Z M16,2.77555756e-17 C11.65625,2.77555756e-17 11.1125,0.01875 9.40625,0.09375 C7.70625,0.16875 6.5375,0.44375 5.525,0.8375 C4.46875,1.25 3.575,1.79375 2.6875,2.6875 C1.79375,3.575 1.25,4.46875 0.8375,5.51875 C0.44375,6.5375 0.16875,7.7 0.09375,9.4 C0.01875,11.1125 0,11.65625 0,16 C0,20.34375 0.01875,20.8875 0.09375,22.59375 C0.16875,24.29375 0.44375,25.4625 0.8375,26.475 C1.25,27.53125 1.79375,28.425 2.6875,29.3125 C3.575,30.2 4.46875,30.75 5.51875,31.15625 C6.5375,31.55 7.7,31.825 9.4,31.9 C11.10625,31.975 11.65,31.99375 15.99375,31.99375 C20.3375,31.99375 20.88125,31.975 22.5875,31.9 C24.2875,31.825 25.45625,31.55 26.46875,31.15625 C27.51875,30.75 28.4125,30.2 29.3,29.3125 C30.1875,28.425 30.7375,27.53125 31.14375,26.48125 C31.5375,25.4625 31.8125,24.3 31.8875,22.6 C31.9625,20.89375 31.98125,20.35 31.98125,16.00625 C31.98125,11.6625 31.9625,11.11875 31.8875,9.4125 C31.8125,7.7125 31.5375,6.54375 31.14375,5.53125 C30.75,4.46875 30.20625,3.575 29.3125,2.6875 C28.425,1.8 27.53125,1.25 26.48125,0.84375 C25.4625,0.45 24.3,0.175 22.6,0.1 C20.8875,0.01875 20.34375,-1.77635684e-15 16,-1.77635684e-15 Z" id="Shape" fill="#ffffff" fill-rule="nonzero"></path>
  <path d="M16,7.78125 C11.4625,7.78125 7.78125,11.4625 7.78125,16 C7.78125,20.5375 11.4625,24.21875 16,24.21875 C20.5375,24.21875 24.21875,20.5375 24.21875,16 C24.21875,11.4625 20.5375,7.78125 16,7.78125 Z M16,21.33125 C13.05625,21.33125 10.66875,18.94375 10.66875,16 C10.66875,13.05625 13.05625,10.66875 16,10.66875 C18.94375,10.66875 21.33125,13.05625 21.33125,16 C21.33125,18.94375 18.94375,21.33125 16,21.33125 Z" id="Shape" fill="#ffffff" fill-rule="nonzero"></path>
  <path d="M26.4625,7.45625 C26.4625,8.5159375 25.6034375,9.375 24.54375,9.375 C23.4840625,9.375 22.625,8.5159375 22.625,7.45625 C22.625,6.3965625 23.4840625,5.5375 24.54375,5.5375 C25.6034375,5.5375 26.4625,6.3965625 26.4625,7.45625 Z" id="Shape" fill="#ffffff" fill-rule="nonzero"></path>
</svg>