<svg xmlns="http://www.w3.org/2000/svg" width="28.88" height="28.956" viewBox="0 0 28.88 28.956">
  <path id="Combined_Shape" data-name="Combined Shape" d="M18.644,28.956c-.556,0-2.182-.22-5.282-2.262C9.067,23.867,3.3,17.975.777,11.722A12.311,12.311,0,0,1,0,7.575a3.62,3.62,0,0,1,1.373-2.64l2.74-1.95a2.071,2.071,0,0,1,2.781.388L9.668,6.836a2.552,2.552,0,0,1,.106,2.905l-1.236,1.8a1.14,1.14,0,0,0,.11,1.345L15.112,19.6a1.192,1.192,0,0,0,.815.32,1.205,1.205,0,0,0,.556-.137l1.507-.9a2.363,2.363,0,0,1,2.849.4l3.446,3.68c.041.043.081.089.119.138a1.847,1.847,0,0,1-.315,2.591l-2.546,2.037a6.851,6.851,0,0,1-2.677,1.21,1.271,1.271,0,0,1-.2.015ZM4.811,3.968l-2.74,1.95A2.439,2.439,0,0,0,1.2,7.584a11.151,11.151,0,0,0,.69,3.687c2.315,5.746,7.854,11.6,12.129,14.416,2.989,1.968,4.351,2.068,4.594,2.068h.04a5.774,5.774,0,0,0,2.134-.964l2.546-2.037A.607.607,0,0,0,23.4,24.7a.642.642,0,0,0,0-.906L19.96,20.11a1.169,1.169,0,0,0-1.352-.19l-1.507.9a2.393,2.393,0,0,1-2.856-.382L7.78,13.718a2.34,2.34,0,0,1-.234-2.865l1.236-1.8A1.344,1.344,0,0,0,8.729,7.59L5.955,4.127A.853.853,0,0,0,5.3,3.82H5.282A.819.819,0,0,0,4.811,3.968ZM22.6,15.417A9.614,9.614,0,0,0,13,5.808a.594.594,0,0,1,0-1.189,10.8,10.8,0,0,1,10.784,10.8.593.593,0,1,1-1.187,0Zm-4.637.009a4.458,4.458,0,0,0-4.451-4.457h0a.586.586,0,0,1,0-1.172,5.631,5.631,0,0,1,5.621,5.628.585.585,0,1,1-1.169,0Zm9.723-.03A14.146,14.146,0,0,0,13.619,1.2a.6.6,0,0,1,0-1.2A15.346,15.346,0,0,1,28.88,15.395h0a.6.6,0,1,1-1.193,0Z" transform="translate(0)" fill="#fff"/>
</svg>
