<svg xmlns="http://www.w3.org/2000/svg" width="25.746" height="26.922" viewBox="0 0 25.746 26.922">
  <path id="Fill_1" data-name="Fill 1" d="M19.387,26.922h-.029c-.577,0-2.267-.225-5.485-2.311C9.414,21.72,3.423,15.7.807,9.307A12.211,12.211,0,0,1,0,5.069a3.685,3.685,0,0,1,1.426-2.7L4.27.377a2.175,2.175,0,0,1,2.887.4l2.881,3.54a2.575,2.575,0,0,1,.11,2.969L8.865,9.118a1.153,1.153,0,0,0,.114,1.375l6.711,6.871a1.259,1.259,0,0,0,1.424.187l1.564-.923a2.486,2.486,0,0,1,1.207-.313,2.459,2.459,0,0,1,1.752.722L25.214,20.8c.042.044.083.091.123.141a1.867,1.867,0,0,1-.327,2.648L22.368,25.67a7.168,7.168,0,0,1-2.78,1.237A1.314,1.314,0,0,1,19.387,26.922ZM5.487,1.229A.867.867,0,0,0,5,1.381L2.15,3.375a2.478,2.478,0,0,0-.9,1.7,11.232,11.232,0,0,0,.716,3.768C4.37,14.719,10.121,20.7,14.56,23.581c3.1,2.011,4.519,2.113,4.772,2.113h.04a6.019,6.019,0,0,0,2.215-.986l2.644-2.082a.819.819,0,0,0,.067-.059.648.648,0,0,0,0-.926L20.724,17.88a1.218,1.218,0,0,0-.839-.332,1.236,1.236,0,0,0-.565.137l-1.564.922a2.523,2.523,0,0,1-1.22.315,2.492,2.492,0,0,1-1.747-.706L8.078,11.347a2.364,2.364,0,0,1-.243-2.929L9.119,6.583a1.355,1.355,0,0,0-.056-1.5L6.182,1.544A.889.889,0,0,0,5.5,1.229H5.487Z" transform="translate(0 0)" fill="#fff"/>
</svg>
