<svg width="28px" height="28px" viewBox="0 0 28 28" version="1.1" 
  xmlns="http://www.w3.org/2000/svg" 
  xmlns:xlink="http://www.w3.org/1999/xlink">
  <path d="M14,0.1375 C6.34375,0.1375 0.1375,6.34375 0.1375,14 C0.1375,19.875 3.79375,24.8875 8.95,26.90625 C8.83125,25.8125 8.71875,24.125 9,22.93125 C9.25,21.85 10.625,16.04375 10.625,16.04375 C10.625,16.04375 10.2125,15.2125 10.2125,13.9875 C10.2125,12.0625 11.33125,10.61875 12.71875,10.61875 C13.9,10.61875 14.475,11.50625 14.475,12.56875 C14.475,13.75625 13.71875,15.5375 13.325,17.18125 C12.99375,18.5625 14.0125,19.6875 15.375,19.6875 C17.8375,19.6875 19.73125,17.0875 19.73125,13.3375 C19.73125,10.01875 17.34375,7.7 13.94375,7.7 C10,7.7 7.6875,10.65625 7.6875,13.71875 C7.6875,14.9125 8.14375,16.1875 8.71875,16.88125 C8.83125,17.01875 8.85,17.1375 8.8125,17.28125 C8.70625,17.71875 8.475,18.6625 8.425,18.85625 C8.3625,19.1125 8.225,19.1625 7.9625,19.04375 C6.23125,18.2375 5.15,15.70625 5.15,13.675 C5.15,9.3 8.325,5.2875 14.30625,5.2875 C19.1125,5.2875 22.85,8.7125 22.85,13.29375 C22.85,18.06875 19.8375,21.91875 15.65625,21.91875 C14.25,21.91875 12.93125,21.1875 12.48125,20.325 C12.48125,20.325 11.7875,22.96875 11.61875,23.61875 C11.30625,24.825 10.4625,26.33125 9.89375,27.25 C11.19375,27.65 12.56875,27.86875 14,27.86875 C21.65625,27.86875 27.8625,21.6625 27.8625,14.00625 C27.8625,6.34375 21.65625,0.1375 14,0.1375 Z" id="Shape" fill="#FFFFFF" fill-rule="nonzero"></path>
</svg>