<svg width="22px" height="22px" viewBox="0 0 22 22" version="1.1" xmlns="http://www.w3.org/2000/svg" xmlns:xlink="http://www.w3.org/1999/xlink">
    <g id="Artboard" stroke="none" stroke-width="1" fill="none" fill-rule="evenodd" stroke-linecap="round" stroke-linejoin="round">
        <path d="M20.5833333,19.75 C20.5833333,20.2102373 20.2102373,20.5833333 19.75,20.5833333 L2.25,20.5833333 C1.78976271,20.5833333 1.41666667,20.2102373 1.41666667,19.75 L1.41666667,5.51166667 C1.41666667,5.29067099 1.50454219,5.07874394 1.66083333,4.9225 L4.9225,1.66083333 C5.07874394,1.50454219 5.29067099,1.41666667 5.51166667,1.41666667 L19.75,1.41666667 C20.2102373,1.41666667 20.5833333,1.78976271 20.5833333,2.25 L20.5833333,19.75 Z" id="Path" stroke="#000000" stroke-width="1.2"></path>
        <path d="M4.75,11.4166667 L17.25,11.4166667 C17.7102373,11.4166667 18.0833333,11.7897627 18.0833333,12.25 L18.0833333,20.5833333 L3.91666667,20.5833333 L3.91666667,12.25 C3.91666667,11.7897627 4.28976271,11.4166667 4.75,11.4166667 Z" id="Path" stroke="#000000" stroke-width="1.2"></path>
        <path d="M5.58333333,1.41666667 L16.4166667,1.41666667 L16.4166667,6.41666667 C16.4166667,6.87690396 16.0435706,7.25 15.5833333,7.25 L6.41666667,7.25 C5.95642938,7.25 5.58333333,6.87690396 5.58333333,6.41666667 L5.58333333,1.41666667 Z" id="Path" stroke="#000000" stroke-width="1.2"></path>
        <rect id="Rectangle" stroke="#000000" x="13.0833333" y="3.08333333" width="1.66666667" height="2.5"></rect>
        <line x1="6.41666667" y1="13.9166667" x2="11.8333333" y2="13.9166667" id="Path" stroke="#000000" stroke-width="1.2"></line>
        <line x1="6.41666667" y1="16.4166667" x2="15.5833333" y2="16.4166667" id="Path" stroke="#000000" stroke-width="1.2"></line>
    </g>
</svg>
