<svg width="32px" height="26px" viewBox="0 0 32 26" version="1.1" xmlns="http://www.w3.org/2000/svg" xmlns:xlink="http://www.w3.org/1999/xlink">
  <path d="M32,3.075 C30.825,3.6 29.55625,3.95 28.23125,4.10625 C29.5875,3.29375 30.625,2.00625 31.11875,0.475 C29.85,1.225 28.44375,1.775 26.95,2.06875 C25.75,0.79375 24.04375,0 22.15625,0 C18.53125,0 15.59375,2.9375 15.59375,6.5625 C15.59375,7.075 15.65,7.575 15.7625,8.05625 C10.30625,7.78125 5.46875,5.16875 2.23125,1.19375 C1.66875,2.1625 1.34375,3.29375 1.34375,4.49375 C1.34375,6.76875 2.5,8.78125 4.2625,9.95625 C3.1875,9.925 2.175,9.625 1.2875,9.1375 C1.2875,9.1625 1.2875,9.19375 1.2875,9.21875 C1.2875,12.4 3.55,15.05625 6.55625,15.65625 C6.00625,15.80625 5.425,15.8875 4.825,15.8875 C4.4,15.8875 3.99375,15.84375 3.5875,15.76875 C4.425,18.375 6.85,20.275 9.71875,20.33125 C7.46875,22.09375 4.64375,23.14375 1.5625,23.14375 C1.03125,23.14375 0.5125,23.1125 -0.00625,23.05 C2.90625,24.91875 6.35625,26 10.0625,26 C22.1375,26 28.74375,15.99375 28.74375,7.31875 C28.74375,7.03125 28.7375,6.75 28.725,6.46875 C30.00625,5.55 31.11875,4.39375 32,3.075 Z" id="Shape" fill="#ffffff" fill-rule="nonzero"></path>
</svg>
