<svg width="33px" height="24px" viewBox="0 0 33 24" version="1.1" 
  xmlns="http://www.w3.org/2000/svg" 
  xmlns:xlink="http://www.w3.org/1999/xlink">
  <path d="M31.68125,5.6 C31.68125,5.6 31.36875,3.39375 30.40625,2.425 C29.1875,1.15 27.825,1.14375 27.2,1.06875 C22.725,0.74375 16.00625,0.74375 16.00625,0.74375 L15.99375,0.74375 C15.99375,0.74375 9.275,0.74375 4.8,1.06875 C4.175,1.14375 2.8125,1.15 1.59375,2.425 C0.63125,3.39375 0.325,5.6 0.325,5.6 C0.325,5.6 0.00625,8.1875 0.00625,10.78125 L0.00625,13.20625 C0.00625,15.79375 0.325,18.3875 0.325,18.3875 C0.325,18.3875 0.6375,20.59375 1.59375,21.5625 C2.8125,22.8375 4.4125,22.79375 5.125,22.93125 C7.6875,23.175 16.00625,23.25 16.00625,23.25 C16.00625,23.25 22.73125,23.2375 27.20625,22.91875 C27.83125,22.84375 29.19375,22.8375 30.4125,21.5625 C31.375,20.59375 31.6875,18.3875 31.6875,18.3875 C31.6875,18.3875 32.00625,15.8 32.00625,13.20625 L32.00625,10.78125 C32,8.19375 31.68125,5.6 31.68125,5.6 Z M12.69375,16.15 L12.69375,7.15625 L21.3375,11.66875 L12.69375,16.15 Z" id="Shape" fill="#ffffff" fill-rule="nonzero"></path>
</svg>
