<?xml version="1.0" encoding="UTF-8"?>
<svg width="778px" height="317px" viewBox="0 0 778 317" version="1.1" xmlns="http://www.w3.org/2000/svg" xmlns:xlink="http://www.w3.org/1999/xlink">
    <!-- Generator: Sketch 51.3 (57544) - http://www.bohemiancoding.com/sketch -->
    <title>Artboard</title>
    <desc>Created with Sketch.</desc>
    <defs></defs>
    <g id="Artboard" stroke="none" stroke-width="1" fill="none" fill-rule="evenodd">
        <g id="logo-tag-big-b" fill-rule="nonzero">
            <path d="M121.4,173.44 C108.386667,189.753333 90.43,197.906667 67.53,197.9 C49.03,197.9 33.41,191.12 20.67,177.56 C7.93,164 1.56333333,147.42 1.57,127.82 C1.57,107.82 7.84666667,91.1533333 20.4,77.82 C32.9533333,64.4866667 48.6633333,57.79 67.53,57.73 C82.7433333,57.73 95.6633333,62.5866667 106.29,72.3 C116.363333,81.4333333 122.316667,93.0666667 124.15,107.2 L25.21,141 C27.41,152.333333 31.35,161.586667 37.03,168.76 C45.8233333,179.746667 57.2733333,185.243333 71.38,185.25 C88.7933333,185.25 104.366667,177.37 118.1,161.61 C118.829585,163.525393 119.3819,165.503685 119.75,167.52 C120.114654,169.540362 120.667049,171.522288 121.4,173.44 Z M24.11,129.19 C40.4233333,122.963333 64.8833333,113.526667 97.49,100.88 C94.1566667,80.54 84.08,70.37 67.26,70.37 C53.52,70.37 42.8933333,75.2266667 35.38,84.94 C27.8666667,94.6533333 24.11,108.12 24.11,125.34 L24.11,129.19 Z" id="Shape" fill="#FFFFFF"></path>
            <path d="M167,84.94 C178.9,66.8 194.746667,57.73 214.54,57.73 C233.6,57.73 249.13,64.19 261.13,77.11 C273.13,90.03 279.13,106.656667 279.13,126.99 C279.13,146.783333 272.486667,163.593333 259.2,177.42 C245.913333,191.246667 229.846667,198.163333 211,198.17 C197.62,198.17 184.793333,193.406667 172.52,183.88 C159.7,174.173333 152.28,162.813333 150.26,149.8 C147.513333,132.58 146.14,120.213333 146.14,112.7 L146.14,14 C146.14,10.34 144.583333,8.51 141.47,8.51 C138.136667,7.04333333 136.486667,5.48333333 136.52,3.83 C143.286667,3.27666667 153.446667,2.09666667 167,0.29 L167,84.94 Z M167.27,129.46 L167.27,134.69 C167.27,150.81 171.27,163.313333 179.27,172.2 C187.27,181.086667 198.216667,185.53 212.11,185.53 C225.85,185.53 236.796667,180.31 244.95,169.87 C253.103333,159.43 257.18,145.686667 257.18,128.64 C257.18,111.6 253.103333,97.63 244.95,86.73 C236.796667,75.83 226.213333,70.3766667 213.2,70.37 C200.013333,70.37 189.066667,75.96 180.36,87.14 C171.653333,98.32 167.3,112.426667 167.3,129.46 L167.27,129.46 Z" id="Shape" fill="#FFFFFF"></path>
            <path d="M421.25,173.44 C408.243333,189.753333 390.286667,197.906667 367.38,197.9 C348.873333,197.9 333.253333,191.12 320.52,177.56 C307.786667,164 301.42,147.42 301.42,127.82 C301.42,107.82 307.696667,91.1533333 320.25,77.82 C332.803333,64.4866667 348.513333,57.7966667 367.38,57.75 C382.586667,57.75 395.506667,62.6066667 406.14,72.32 C416.213333,81.44 422.166667,93.0666667 424,107.2 L325.06,141 C327.26,152.333333 331.2,161.586667 336.88,168.76 C345.673333,179.746667 357.123333,185.243333 371.23,185.25 C388.636667,185.25 404.21,177.37 417.95,161.61 C418.679585,163.525393 419.2319,165.503685 419.6,167.52 C419.964654,169.540362 420.517049,171.522288 421.25,173.44 Z M324,129.19 C340.3,122.963333 364.76,113.526667 397.38,100.88 C394.08,80.54 384.003333,70.37 367.15,70.37 C353.41,70.37 342.783333,75.2266667 335.27,84.94 C327.756667,94.6533333 324,108.12 324,125.34 L324,129.19 Z" id="Shape" fill="#FFFFFF"></path>
            <path d="M553.45,182.23 C553.45,186.27 555.45,188.286667 559.45,188.28 L563.02,188.28 L563.29,192.95 C549.923333,193.69 539.663333,194.606667 532.51,195.7 L532.51,102.81 C532.51,81.19 522.983333,70.3766667 503.93,70.37 C493.656667,70.37 484.953333,74.54 477.82,82.88 C470.686667,91.22 467.13,101.26 467.15,113 L467.15,182.26 C467.15,186.3 469.35,188.316667 473.75,188.31 L477.87,188.31 L477.87,193 C473.29,193.186667 466.416667,193.646667 457.25,194.38 C448.083333,195.113333 441.213333,195.57 436.64,195.75 L436.64,191 L440.21,191 C444.21,191 446.226667,189.076667 446.26,185.23 L446.26,72.3 C446.26,68.64 444.7,66.8 441.59,66.8 C438.29,65.1533333 436.64,63.5066667 436.64,61.86 L444.06,61.03 C447.36,60.6566667 449.743333,60.4733333 451.21,60.48 C455.97,60.12 460.916667,59.57 466.05,58.83 L466.05,83.29 C477.223333,66.25 491.423333,57.73 508.65,57.73 C522.943333,57.73 533.983333,62.0833333 541.77,70.79 C549.556667,79.4966667 553.45,91.83 553.45,107.79 L553.45,182.23 Z" id="Shape" fill="#FFFFFF"></path>
            <polygon id="Shape" fill="#D49B6D" points="0.82 269.39 7.58 269.39 7.58 301.73 27.82 301.73 27.82 307.89 0.82 307.89"></polygon>
            <path d="M41.08,308.49 C39.7547217,308.497101 38.4361497,308.301507 37.17,307.91 C35.9804356,307.559844 34.8699759,306.982541 33.9,306.21 C32.9552626,305.448862 32.1846235,304.494087 31.64,303.41 C31.0574327,302.200834 30.7663174,300.871978 30.79,299.53 L30.79,299.42 C30.755447,297.993377 31.0568957,296.578624 31.67,295.29 C32.2408144,294.137121 33.0812387,293.138903 34.12,292.38 C35.2633539,291.563855 36.5536888,290.976413 37.92,290.65 C39.5082188,290.247943 41.1417694,290.052992 42.78,290.07 C44.2169446,290.052933 45.6525708,290.163366 47.07,290.4 C48.2619689,290.612996 49.4380292,290.907011 50.59,291.28 L50.59,290.56 C50.717893,288.78705 50.0423508,287.050466 48.75,285.83 C47.2127034,284.672618 45.3097452,284.108121 43.39,284.24 C41.9086164,284.218753 40.4304157,284.383371 38.99,284.73 C37.6565611,285.075205 36.3498221,285.516355 35.08,286.05 L33.32,280.83 C34.9288771,280.098188 36.6028835,279.518982 38.32,279.1 C40.2861083,278.640959 42.3013011,278.426005 44.32,278.46 C48.64,278.46 51.8466667,279.543333 53.94,281.71 C55.0192661,282.791079 55.8308606,284.109492 56.31,285.56 C56.8443066,287.209782 57.1044254,288.936025 57.08,290.67 L57.08,307.89 L50.54,307.89 L50.54,304.26 C49.4723621,305.489126 48.1833457,306.50677 46.74,307.26 C44.9830191,308.128724 43.0390614,308.551174 41.08,308.49 Z M43,303.65 C44.043085,303.661069 45.0817376,303.51269 46.08,303.21 C46.9466779,302.963122 47.7579883,302.552375 48.47,302 C49.1442722,301.451701 49.6990188,300.771031 50.1,300 C50.5023229,299.217844 50.7082483,298.349525 50.7,297.47 L50.7,295.47 C49.746776,295.106021 48.7628368,294.828242 47.76,294.64 C46.5535285,294.411999 45.3277969,294.301483 44.1,294.31 C42.3423902,294.209095 40.5964136,294.652573 39.1,295.58 C37.9279161,296.381954 37.251491,297.731026 37.31,299.15 L37.31,299.26 C37.2563967,300.549576 37.8679805,301.776519 38.93,302.51 C40.1317136,303.311411 41.5568422,303.710587 43,303.65 Z" id="Shape" fill="#D49B6D"></path>
            <path d="M80.24,284.57 L76.55,284.57 L76.55,279.07 L80.24,279.07 L80.24,276.91 C80.24,273.71 81.02,271.31 82.6,269.73 C84.3738829,268.092956 86.7411869,267.254461 89.15,267.41 C90.1544563,267.397242 91.1581505,267.470846 92.15,267.63 C92.9506123,267.764153 93.7421322,267.947839 94.52,268.18 L94.52,273.79 C93.8979481,273.577807 93.2634125,273.404145 92.62,273.27 C91.9621238,273.133824 91.2918145,273.066793 90.62,273.07 C88.0533333,273.07 86.77,274.55 86.77,277.51 L86.77,279.12 L94.47,279.12 L94.47,284.57 L86.89,284.57 L86.89,307.89 L80.24,307.89 L80.24,284.57 Z" id="Shape" fill="#D49B6D"></path>
            <path d="M110.87,308.55 C108.864067,308.564001 106.874304,308.190496 105.01,307.45 C103.241236,306.742388 101.627699,305.696137 100.26,304.37 C98.891281,303.012835 97.8097957,301.394008 97.08,299.61 C96.2824196,297.665935 95.8845097,295.58116 95.91,293.48 L95.91,293.37 C95.8801254,291.362017 96.2190747,289.365606 96.91,287.48 C97.591853,285.6989 98.6104085,284.065816 99.91,282.67 C104.131246,278.273313 110.662155,277.007974 116.22,279.51 C117.905575,280.308983 119.39167,281.473945 120.57,282.92 C121.755611,284.403414 122.645076,286.100866 123.19,287.92 C123.789682,289.862949 124.086496,291.886678 124.07,293.92 C124.07,294.22 124.07,294.52 124.07,294.83 C124.07,295.14 124.07,295.46 123.99,295.83 L102.62,295.83 C102.843538,297.943847 103.85371,299.89637 105.45,301.3 C107.004081,302.579149 108.967915,303.253884 110.98,303.2 C112.458417,303.237883 113.92589,302.936863 115.27,302.32 C116.592218,301.654659 117.800558,300.783844 118.85,299.74 L122.75,303.2 C121.369881,304.856616 119.669163,306.21719 117.75,307.2 C115.596813,308.191209 113.238097,308.654038 110.87,308.55 Z M117.42,291.33 C117.317664,290.30189 117.075426,289.292568 116.7,288.33 C116.361214,287.438432 115.859321,286.617769 115.22,285.91 C114.590381,285.23303 113.836769,284.683097 113,284.29 C112.079757,283.875675 111.07903,283.670748 110.07,283.69 C108.153881,283.635299 106.30685,284.407627 105,285.81 C103.615607,287.339601 102.763169,289.276001 102.57,291.33 L117.42,291.33 Z" id="Shape" fill="#D49B6D"></path>
            <path d="M129.35,278.85 L136,278.85 L136,283.3 C136.479595,282.628203 137.000606,281.98696 137.56,281.38 C138.142252,280.743393 138.816362,280.197364 139.56,279.76 C140.335619,279.287629 141.169242,278.917877 142.04,278.66 C143.029625,278.366789 144.057958,278.225182 145.09,278.24 C148.39,278.24 150.94,279.24 152.74,281.24 C154.61808,283.500764 155.578186,286.384649 155.43,289.32 L155.43,307.86 L148.78,307.86 L148.78,291.36 C148.902087,289.468941 148.321636,287.599389 147.15,286.11 C145.973886,284.837603 144.28974,284.158808 142.56,284.26 C140.785415,284.194947 139.066471,284.885432 137.83,286.16 C136.533541,287.625465 135.874909,289.547375 136,291.5 L136,307.89 L129.34,307.89 L129.35,278.85 Z" id="Shape" fill="#D49B6D"></path>
            <path d="M175.44,308.55 C173.434067,308.564001 171.444304,308.190496 169.58,307.45 C167.811236,306.742388 166.197699,305.696137 164.83,304.37 C163.458109,303.013401 162.373242,301.394601 161.64,299.61 C160.850524,297.663847 160.456201,295.580052 160.48,293.48 L160.48,293.37 C160.466117,291.358913 160.822031,289.362404 161.53,287.48 C162.193045,285.700991 163.194882,284.067488 164.48,282.67 C168.701246,278.273313 175.232155,277.007974 180.79,279.51 C182.475575,280.308983 183.96167,281.473945 185.14,282.92 C186.325611,284.403414 187.215076,286.100866 187.76,287.92 C188.359682,289.862949 188.656496,291.886678 188.64,293.92 C188.64,294.22 188.64,294.52 188.64,294.83 C188.64,295.14 188.64,295.46 188.56,295.83 L167.19,295.83 C167.432259,297.905319 168.433049,299.817862 170,301.2 C171.554081,302.479149 173.517915,303.153884 175.53,303.1 C177.008417,303.137883 178.47589,302.836863 179.82,302.22 C181.142218,301.554659 182.350558,300.683844 183.4,299.64 L187.3,303.1 C185.919881,304.756616 184.219163,306.11719 182.3,307.1 C180.161355,308.122504 177.809488,308.619618 175.44,308.55 Z M171.51,267.08 L177.67,267.08 L184.09,275.16 L178.82,275.16 L174.53,271.48 L170.3,275.16 L165.14,275.16 L171.51,267.08 Z M182,291.33 C181.897664,290.30189 181.655426,289.292568 181.28,288.33 C180.941214,287.438432 180.439321,286.617769 179.8,285.91 C179.170381,285.23303 178.416769,284.683097 177.58,284.29 C176.659757,283.875675 175.65903,283.670748 174.65,283.69 C172.733881,283.635299 170.88685,284.407627 169.58,285.81 C168.195607,287.339601 167.343169,289.276001 167.15,291.33 L182,291.33 Z" id="Shape" fill="#D49B6D"></path>
            <path d="M203.65,308.38 C202.518098,308.393278 201.390083,308.245121 200.3,307.94 C199.313296,307.671418 198.400384,307.18248 197.63,306.51 C196.843854,305.798611 196.248987,304.901153 195.9,303.9 C195.4665,302.612067 195.260096,301.258602 195.29,299.9 L195.29,284.57 L191.61,284.57 L191.61,278.85 L195.29,278.85 L195.29,270.85 L202,270.85 L202,278.85 L209.81,278.85 L209.81,284.57 L202,284.57 L202,298.81 C201.902874,299.826491 202.240778,300.836568 202.93,301.59 C203.671,302.196707 204.614214,302.500393 205.57,302.44 C207.006156,302.436133 208.421145,302.093521 209.7,301.44 L209.7,306.89 C208.848527,307.368502 207.941819,307.741259 207,308 C205.904704,308.272333 204.778466,308.400085 203.65,308.38 Z" id="Shape" fill="#D49B6D"></path>
            <path d="M215.15,278.85 L221.8,278.85 L221.8,285.39 C222.621745,283.319785 223.969476,281.499831 225.71,280.11 C227.544078,278.747397 229.813615,278.103531 232.09,278.3 L232.09,285.3 L231.71,285.3 C230.344149,285.286265 228.987687,285.527037 227.71,286.01 C226.512639,286.477017 225.438407,287.212557 224.57,288.16 C223.652832,289.202654 222.970731,290.430436 222.57,291.76 C222.066751,293.378026 221.823723,295.065722 221.85,296.76 L221.85,307.82 L215.2,307.82 L215.15,278.85 Z" id="Shape" fill="#D49B6D"></path>
            <path d="M248.86,308.55 C246.854067,308.564001 244.864304,308.190496 243,307.45 C241.234319,306.742157 239.624103,305.695856 238.26,304.37 C236.884906,303.016051 235.799573,301.396556 235.07,299.61 C234.27242,297.665935 233.87451,295.58116 233.9,293.48 L233.9,293.37 C233.870125,291.362017 234.209075,289.365606 234.9,287.48 C235.581853,285.6989 236.600408,284.065816 237.9,282.67 C239.162594,281.297963 240.689954,280.195815 242.39,279.43 C246.170349,277.815058 250.451857,277.844036 254.21,279.51 C255.900257,280.305983 257.390233,281.471308 258.57,282.92 C259.748338,284.406635 260.633992,286.103289 261.18,287.92 C261.779682,289.862949 262.076496,291.886678 262.06,293.92 C262.06,294.22 262.06,294.52 262.06,294.83 C262.06,295.14 262.01,295.46 261.97,295.83 L240.61,295.83 C240.832304,297.946441 241.84684,299.900494 243.45,301.3 C245.000117,302.579264 246.960909,303.254175 248.97,303.2 C250.448417,303.237883 251.91589,302.936863 253.26,302.32 C254.58328,301.656412 255.791885,300.785406 256.84,299.74 L260.74,303.2 C259.358724,304.855435 257.658265,306.215802 255.74,307.2 C253.585512,308.187174 251.227778,308.649811 248.86,308.55 Z M255.41,291.33 C255.306231,290.303138 255.067506,289.294444 254.7,288.33 C254.357518,287.44025 253.856019,286.620232 253.22,285.91 C252.590381,285.23303 251.836769,284.683097 251,284.29 C250.079146,283.877568 249.078848,283.672729 248.07,283.69 C246.153151,283.631357 244.304557,284.404339 243,285.81 C241.608904,287.336271 240.752424,289.273881 240.56,291.33 L255.41,291.33 Z" id="Shape" fill="#D49B6D"></path>
            <path d="M299,308.49 C296.892032,308.578285 294.804879,308.042582 293,306.95 C291.496964,305.999068 290.173368,304.790568 289.09,303.38 L289.09,307.89 L282.44,307.89 L282.44,267.74 L289.09,267.74 L289.09,283.69 C290.176877,282.173028 291.532614,280.868132 293.09,279.84 C294.862333,278.717552 296.933672,278.159616 299.03,278.24 C300.745923,278.244171 302.444467,278.58388 304.03,279.24 C305.65771,279.901729 307.129163,280.896322 308.35,282.16 C309.641371,283.531794 310.659527,285.137087 311.35,286.89 C312.154752,288.936478 312.548907,291.121322 312.51,293.32 L312.51,293.43 C312.548319,295.629152 312.164731,297.815265 311.38,299.87 C310.702051,301.629249 309.682441,303.236834 308.38,304.6 C307.132551,305.854647 305.642129,306.841456 304,307.5 C302.414077,308.153687 300.715359,308.490033 299,308.49 Z M297.41,302.72 C298.517446,302.725247 299.613919,302.500505 300.63,302.06 C301.620728,301.623196 302.517295,300.998316 303.27,300.22 C304.050671,299.374013 304.655691,298.381509 305.05,297.3 C305.505351,296.057891 305.729051,294.742806 305.71,293.42 L305.71,293.31 C305.724873,292.007066 305.501188,290.71241 305.05,289.49 C304.655902,288.402421 304.051008,287.403327 303.27,286.55 C301.757277,284.923077 299.631484,284.005286 297.41,284.02 C296.292966,284.015786 295.186906,284.240401 294.16,284.68 C293.139813,285.117325 292.223232,285.764723 291.47,286.58 C290.675234,287.434033 290.050732,288.431878 289.63,289.52 C289.156537,290.726673 288.92219,292.013887 288.94,293.31 L288.94,293.42 C288.920889,294.719469 289.155259,296.010204 289.63,297.22 C290.055455,298.305752 290.67943,299.302756 291.47,300.16 C292.223232,300.975277 293.139813,301.622675 294.16,302.06 C295.193092,302.502284 296.306236,302.726955 297.43,302.72 L297.41,302.72 Z" id="Shape" fill="#D49B6D"></path>
            <path d="M331.36,308.55 C329.354067,308.564001 327.364304,308.190496 325.5,307.45 C323.731236,306.742388 322.117699,305.696137 320.75,304.37 C319.381281,303.012835 318.299796,301.394008 317.57,299.61 C316.77242,297.665935 316.37451,295.58116 316.4,293.48 L316.4,293.37 C316.386117,291.358913 316.742031,289.362404 317.45,287.48 C318.116887,285.702866 319.118294,284.070062 320.4,282.67 C324.621246,278.273313 331.152155,277.007974 336.71,279.51 C338.397186,280.306374 339.883819,281.471757 341.06,282.92 C342.245611,284.403414 343.135076,286.100866 343.68,287.92 C344.279682,289.862949 344.576496,291.886678 344.56,293.92 C344.56,294.22 344.56,294.52 344.56,294.83 C344.56,295.14 344.51,295.46 344.47,295.83 L323.11,295.83 C323.369448,297.917928 324.40029,299.833368 326,301.2 C327.550117,302.479264 329.510909,303.154175 331.52,303.1 C332.998417,303.137883 334.46589,302.836863 335.81,302.22 C337.132218,301.554659 338.340558,300.683844 339.39,299.64 L343.29,303.1 C341.909881,304.756616 340.209163,306.11719 338.29,307.1 C336.13018,308.133484 333.752983,308.630877 331.36,308.55 Z M337.91,291.33 C337.806231,290.303138 337.567506,289.294444 337.2,288.33 C336.857787,287.437872 336.352516,286.617231 335.71,285.91 C335.082194,285.235342 334.33232,284.68566 333.5,284.29 C332.575979,283.876442 331.572178,283.671585 330.56,283.69 C328.646356,283.632953 326.801468,284.40591 325.5,285.81 C324.108904,287.336271 323.252424,289.273881 323.06,291.33 L337.91,291.33 Z" id="Shape" fill="#D49B6D"></path>
            <polygon id="Shape" fill="#D49B6D" points="350.23 267.74 356.88 267.74 356.88 307.89 350.23 307.89"></polygon>
            <polygon id="Shape" fill="#D49B6D" points="364.58 267.74 371.24 267.74 371.24 307.89 364.58 307.89"></polygon>
            <path d="M391.92,308.55 C389.913999,308.564756 387.924093,308.191224 386.06,307.45 C384.290042,306.744696 382.67608,305.698169 381.31,304.37 C379.938109,303.013401 378.853242,301.394601 378.12,299.61 C377.325842,297.665228 376.931338,295.580477 376.96,293.48 L376.96,293.37 C376.935048,291.362399 377.273847,289.36687 377.96,287.48 C378.626887,285.702866 379.628294,284.070062 380.91,282.67 C382.174604,281.30023 383.701471,280.198437 385.4,279.43 C389.180349,277.815058 393.461857,277.844036 397.22,279.51 C398.910257,280.305983 400.400233,281.471308 401.58,282.92 C402.761892,284.405839 403.650966,286.102544 404.2,287.92 C404.794781,289.864055 405.091483,291.887027 405.08,293.92 C405.08,294.22 405.08,294.52 405.08,294.83 C405.08,295.14 405.08,295.46 405,295.83 L383.67,295.83 C383.889698,297.944997 384.900553,299.89884 386.5,301.3 C388.053185,302.580751 390.017637,303.255699 392.03,303.2 C393.508417,303.237883 394.97589,302.936863 396.32,302.32 C397.640098,301.656092 398.845359,300.785063 399.89,299.74 L403.8,303.2 C402.415684,304.852328 400.715902,306.212154 398.8,307.2 C396.645512,308.187174 394.287778,308.649811 391.92,308.55 Z M398.46,291.33 C398.361,290.302342 398.122126,289.293018 397.75,288.33 C397.407518,287.44025 396.906019,286.620232 396.27,285.91 C395.640381,285.23303 394.886769,284.683097 394.05,284.29 C393.129146,283.877568 392.128848,283.672729 391.12,283.69 C389.203151,283.631357 387.354557,284.404339 386.05,285.81 C384.66258,287.338665 383.806669,289.274989 383.61,291.33 L398.46,291.33 Z" id="Shape" fill="#D49B6D"></path>
            <path d="M438.34,308.55 C436.333999,308.564756 434.344093,308.191224 432.48,307.45 C430.710042,306.744696 429.09608,305.698169 427.73,304.37 C426.358109,303.013401 425.273242,301.394601 424.54,299.61 C423.745842,297.665228 423.351338,295.580477 423.38,293.48 L423.38,293.37 C423.350125,291.362017 423.689075,289.365606 424.38,287.48 C425.046887,285.702866 426.048294,284.070062 427.33,282.67 C428.592594,281.297963 430.119954,280.195815 431.82,279.43 C435.600349,277.815058 439.881857,277.844036 443.64,279.51 C445.330257,280.305983 446.820233,281.471308 448,282.92 C449.182473,284.403948 450.06856,286.101433 450.61,287.92 C451.212914,289.862454 451.513099,291.886171 451.5,293.92 C451.5,294.22 451.5,294.52 451.5,294.83 C451.5,295.14 451.45,295.46 451.42,295.83 L430.09,295.83 C430.309698,297.944997 431.320553,299.89884 432.92,301.3 C434.473185,302.580751 436.437637,303.255699 438.45,303.2 C439.928417,303.237883 441.39589,302.936863 442.74,302.32 C444.060098,301.656092 445.265359,300.785063 446.31,299.74 L450.22,303.2 C448.835684,304.852328 447.135902,306.212154 445.22,307.2 C443.065512,308.187174 440.707778,308.649811 438.34,308.55 Z M444.88,291.33 C444.776231,290.303138 444.537506,289.294444 444.17,288.33 C443.827518,287.44025 443.326019,286.620232 442.69,285.91 C442.060381,285.23303 441.306769,284.683097 440.47,284.29 C439.549146,283.877568 438.548848,283.672729 437.54,283.69 C435.623151,283.631357 433.774557,284.404339 432.47,285.81 C431.08258,287.338665 430.226669,289.274989 430.03,291.33 L444.88,291.33 Z" id="Shape" fill="#D49B6D"></path>
            <path d="M466.55,308.38 C465.414826,308.393007 464.283549,308.244863 463.19,307.94 C462.207099,307.669381 461.297879,307.18059 460.53,306.51 C459.74406,305.79644 459.146386,304.899929 458.79,303.9 C458.360289,302.611373 458.157282,301.257992 458.19,299.9 L458.19,284.57 L454.5,284.57 L454.5,278.85 L458.19,278.85 L458.19,270.85 L464.84,270.85 L464.84,278.85 L472.65,278.85 L472.65,284.57 L464.84,284.57 L464.84,298.81 C464.745556,299.827964 465.08716,300.838239 465.78,301.59 C466.519534,302.199394 467.463837,302.503431 468.42,302.44 C469.852957,302.436068 471.264685,302.093416 472.54,301.44 L472.54,306.89 C471.700136,307.360944 470.807183,307.73021 469.88,307.99 C468.791487,308.263192 467.672181,308.394282 466.55,308.38 Z" id="Shape" fill="#D49B6D"></path>
            <path d="M509.72,308.49 C507.61222,308.576499 505.525574,308.040927 503.72,306.95 C502.216964,305.999068 500.893368,304.790568 499.81,303.38 L499.81,307.89 L493.16,307.89 L493.16,267.74 L499.81,267.74 L499.81,283.69 C500.896877,282.173028 502.252614,280.868132 503.81,279.84 C505.582333,278.717552 507.653672,278.159616 509.75,278.24 C511.465923,278.244171 513.164467,278.58388 514.75,279.24 C516.37771,279.901729 517.849163,280.896322 519.07,282.16 C520.364704,283.529202 521.383292,285.135176 522.07,286.89 C522.874752,288.936478 523.268907,291.121322 523.23,293.32 L523.23,293.43 C523.268319,295.629152 522.884731,297.815265 522.1,299.87 C521.422051,301.629249 520.402441,303.236834 519.1,304.6 C516.640541,307.101091 513.277756,308.506757 509.77,308.5 L509.72,308.49 Z M508.13,302.72 C509.237446,302.725247 510.333919,302.500505 511.35,302.06 C512.340728,301.623196 513.237295,300.998316 513.99,300.22 C514.770671,299.374013 515.375691,298.381509 515.77,297.3 C516.225351,296.057891 516.449051,294.742806 516.43,293.42 L516.43,293.31 C516.444873,292.007066 516.221188,290.71241 515.77,289.49 C515.375902,288.402421 514.771008,287.403327 513.99,286.55 C512.477277,284.923077 510.351484,284.005286 508.13,284.02 C507.012966,284.015786 505.906906,284.240401 504.88,284.68 C503.859813,285.117325 502.943232,285.764723 502.19,286.58 C501.395234,287.434033 500.770732,288.431878 500.35,289.52 C499.876537,290.726673 499.64219,292.013887 499.66,293.31 L499.66,293.42 C499.640889,294.719469 499.875259,296.010204 500.35,297.22 C500.775455,298.305752 501.39943,299.302756 502.19,300.16 C502.943232,300.975277 503.859813,301.622675 504.88,302.06 C505.906906,302.499599 507.012966,302.724214 508.13,302.72 Z" id="Shape" fill="#D49B6D"></path>
            <path d="M528.81,268.07 L536,268.07 L536,274.39 L528.85,274.39 L528.81,268.07 Z M529.08,278.85 L535.74,278.85 L535.74,307.85 L529.08,307.85 L529.08,278.85 Z" id="Shape" fill="#D49B6D"></path>
            <path d="M556.42,308.55 C554.413999,308.564756 552.424093,308.191224 550.56,307.45 C548.790042,306.744696 547.17608,305.698169 545.81,304.37 C544.438109,303.013401 543.353242,301.394601 542.62,299.61 C541.830524,297.663847 541.436201,295.580052 541.46,293.48 L541.46,293.37 C541.435048,291.362399 541.773847,289.36687 542.46,287.48 C543.145187,285.700561 544.163366,284.06808 545.46,282.67 C546.724604,281.30023 548.251471,280.198437 549.95,279.43 C553.730592,277.816266 558.011598,277.845241 561.77,279.51 C563.460257,280.305983 564.950233,281.471308 566.13,282.92 C567.315611,284.403414 568.205076,286.100866 568.75,287.92 C569.344781,289.864055 569.641483,291.887027 569.63,293.92 C569.63,294.22 569.63,294.52 569.63,294.83 C569.63,295.14 569.58,295.46 569.55,295.83 L548.17,295.83 C548.413799,297.909309 549.422585,299.823509 551,301.2 C552.553185,302.480751 554.517637,303.155699 556.53,303.1 C558.008417,303.137883 559.47589,302.836863 560.82,302.22 C562.140098,301.556092 563.345359,300.685063 564.39,299.64 L568.3,303.1 C566.917958,304.754652 565.21767,306.114882 563.3,307.1 C561.154927,308.124521 558.796099,308.621658 556.42,308.55 Z M563,291.33 C562.901,290.302342 562.662126,289.293018 562.29,288.33 C561.947518,287.44025 561.446019,286.620232 560.81,285.91 C560.180381,285.23303 559.426769,284.683097 558.59,284.29 C557.66945,283.876626 556.668939,283.671743 555.66,283.69 C553.743151,283.631357 551.894557,284.404339 550.59,285.81 C549.206809,287.341411 548.351546,289.276267 548.15,291.33 L563,291.33 Z" id="Shape" fill="#D49B6D"></path>
            <path d="M574.9,278.85 L581.55,278.85 L581.55,283.3 C582.036128,282.630458 582.560325,281.989402 583.12,281.38 C583.702252,280.743393 584.376362,280.197364 585.12,279.76 C585.895619,279.287629 586.729242,278.917877 587.6,278.66 C588.573457,278.371166 589.58465,278.229599 590.6,278.24 C593.9,278.24 596.446667,279.24 598.24,281.24 C600.126044,283.496862 601.090357,286.382658 600.94,289.32 L600.94,307.86 L594.28,307.86 L594.28,291.36 C594.404913,289.470219 593.828065,287.600805 592.66,286.11 C591.483886,284.837603 589.79974,284.158808 588.07,284.26 C586.295193,284.193675 584.575751,284.88436 583.34,286.16 C582.05569,287.620075 581.401382,289.529072 581.52,291.47 L581.52,307.86 L574.9,307.86 L574.9,278.85 Z" id="Shape" fill="#D49B6D"></path>
            <path d="M622.75,278.85 L629.4,278.85 L629.4,283.69 C630.482155,282.16895 631.838719,280.863257 633.4,279.84 C635.172333,278.717552 637.243672,278.159616 639.34,278.24 C641.055923,278.244171 642.754467,278.58388 644.34,279.24 C645.96771,279.901729 647.439163,280.896322 648.66,282.16 C649.951371,283.531794 650.969527,285.137087 651.66,286.89 C652.464752,288.936478 652.858907,291.121322 652.82,293.32 L652.82,293.43 C652.858319,295.629152 652.474731,297.815265 651.69,299.87 C651.015404,301.630935 649.995395,303.239149 648.69,304.6 C647.467043,305.854046 646.00025,306.844386 644.38,307.51 C642.794467,308.16612 641.095923,308.505829 639.38,308.51 C637.272032,308.598285 635.184879,308.062582 633.38,306.97 C631.876964,306.019068 630.553368,304.810568 629.47,303.4 L629.47,316.71 L622.82,316.71 L622.75,278.85 Z M637.75,302.72 C638.854312,302.7262 639.947716,302.501388 640.96,302.06 C641.953542,301.628219 642.851034,301.002694 643.6,300.22 C644.387285,299.377192 644.996137,298.383981 645.39,297.3 C645.845351,296.057891 646.069051,294.742806 646.05,293.42 L646.05,293.31 C646.064873,292.007066 645.841188,290.71241 645.39,289.49 C644.99631,288.399983 644.387594,287.400192 643.6,286.55 C642.860361,285.749013 641.961019,285.111979 640.96,284.68 C639.947716,284.238612 638.854312,284.0138 637.75,284.02 C636.632966,284.015786 635.526906,284.240401 634.5,284.68 C633.478325,285.114661 632.561219,285.762431 631.81,286.58 C631.015484,287.436131 630.388037,288.433262 629.96,289.52 C629.489953,290.727353 629.259005,292.014544 629.28,293.31 L629.28,293.42 C629.257705,294.71881 629.488675,296.009522 629.96,297.22 C630.392761,298.304341 631.019689,299.300648 631.81,300.16 C632.561219,300.977569 633.478325,301.625339 634.5,302.06 C635.514525,302.494279 636.606434,302.718783 637.71,302.72 L637.75,302.72 Z" id="Shape" fill="#D49B6D"></path>
            <path d="M672.08,308.55 C669.978769,308.565591 667.895287,308.164529 665.95,307.37 C664.126222,306.619055 662.462982,305.526069 661.05,304.15 C659.672625,302.782262 658.581406,301.153931 657.84,299.36 C657.064892,297.514546 656.670343,295.531599 656.68,293.53 L656.68,293.42 C656.664229,291.399655 657.065956,289.397831 657.86,287.54 C658.621595,285.741315 659.725376,284.10772 661.11,282.73 C662.512096,281.330173 664.172886,280.216187 666,279.45 C667.960322,278.632368 670.066086,278.22074 672.19,278.24 C674.312121,278.219062 676.416912,278.623698 678.38,279.43 C684.01826,281.724922 687.690056,287.222715 687.65,293.31 L687.65,293.42 C687.659461,295.424587 687.254313,297.409476 686.46,299.25 C685.696122,301.047967 684.596495,302.683833 683.22,304.07 C681.803862,305.46418 680.133768,306.574181 678.3,307.34 C676.328614,308.155787 674.213442,308.56726 672.08,308.55 Z M672.19,302.72 C674.627978,302.771175 676.971547,301.777705 678.63,299.99 C679.408716,299.149978 680.007626,298.159734 680.39,297.08 C680.79368,295.94024 680.996687,294.739118 680.99,293.53 L680.99,293.42 C680.997052,292.179538 680.773243,290.948591 680.33,289.79 C679.914753,288.681244 679.290067,287.662733 678.49,286.79 C677.693909,285.945101 676.739029,285.265472 675.68,284.79 C673.384546,283.788182 670.775454,283.788182 668.48,284.79 C667.428486,285.263314 666.483032,285.943496 665.7,286.79 C664.91308,287.635303 664.313353,288.637119 663.94,289.73 C663.537927,290.877089 663.335001,292.084495 663.34,293.3 L663.34,293.41 C663.332519,294.637503 663.556426,295.855421 664,297 C664.423765,298.086602 665.047927,299.083904 665.84,299.94 C666.636019,300.780541 667.586725,301.459617 668.64,301.94 C669.753454,302.45232 670.964337,302.718373 672.19,302.72 Z" id="Shape" fill="#D49B6D"></path>
            <path d="M703,308.44 C700.837139,308.426214 698.691474,308.054524 696.65,307.34 C694.481945,306.600692 692.45366,305.502037 690.65,304.09 L693.65,299.58 C695.132812,300.688434 696.761512,301.586911 698.49,302.25 C699.981584,302.835741 701.567607,303.144135 703.17,303.16 C704.337915,303.226564 705.497764,302.929614 706.49,302.31 C707.250839,301.799197 707.699296,300.936201 707.68,300.02 L707.68,299.91 C707.685881,299.384257 707.497104,298.874916 707.15,298.48 C706.745951,298.05329 706.259453,297.713082 705.72,297.48 C705.044096,297.153669 704.345634,296.876289 703.63,296.65 L701.19,295.88 C700.12,295.59 699.05,295.24 697.97,294.88 C696.928714,294.494289 695.946005,293.965915 695.05,293.31 C694.190009,292.666678 693.471752,291.853106 692.94,290.92 C692.353921,289.841854 692.067323,288.626404 692.11,287.4 L692.11,287.29 C692.092842,286.015193 692.366436,284.753241 692.91,283.6 C693.427414,282.515563 694.178768,281.559295 695.11,280.8 C696.084988,280.004177 697.205949,279.40633 698.41,279.04 C699.703323,278.629141 701.053001,278.423315 702.41,278.43 C704.297007,278.442478 706.17137,278.73914 707.97,279.31 C709.778315,279.873237 711.498478,280.687874 713.08,281.73 L710.44,286.46 C709.102995,285.648776 707.6854,284.978518 706.21,284.46 C704.92698,283.993034 703.575164,283.742948 702.21,283.72 C701.149937,283.656596 700.097737,283.937183 699.21,284.52 C698.528624,284.982164 698.126271,285.756786 698.14,286.58 L698.14,286.69 C698.131557,287.2139 698.329046,287.720191 698.69,288.1 C699.11546,288.510305 699.605284,288.848115 700.14,289.1 C700.814976,289.442396 701.513397,289.736468 702.23,289.98 C703.02,290.25 703.84,290.52 704.68,290.78 C705.74,291.11 706.81,291.49 707.87,291.93 C708.898526,292.348647 709.869647,292.896373 710.76,293.56 C711.611815,294.191024 712.331998,294.982546 712.88,295.89 C713.454595,296.914278 713.738155,298.076182 713.7,299.25 L713.7,299.36 C713.733893,300.738296 713.45347,302.106213 712.88,303.36 C712.34559,304.470406 711.561881,305.442343 710.59,306.2 C709.565364,306.979934 708.401164,307.556942 707.16,307.9 C705.804703,308.270144 704.404883,308.451851 703,308.44 Z" id="Shape" fill="#D49B6D"></path>
            <path d="M732.58,308.55 C730.574067,308.564001 728.584304,308.190496 726.72,307.45 C724.951236,306.742388 723.337699,305.696137 721.97,304.37 C720.598109,303.013401 719.513242,301.394601 718.78,299.61 C717.990524,297.663847 717.596201,295.580052 717.62,293.48 L717.62,293.37 C717.590125,291.362017 717.929075,289.365606 718.62,287.48 C719.297988,285.69698 720.316984,284.06319 721.62,282.67 C725.841246,278.273313 732.372155,277.007974 737.93,279.51 C739.615575,280.308983 741.10167,281.473945 742.28,282.92 C743.465611,284.403414 744.355076,286.100866 744.9,287.92 C745.499682,289.862949 745.796496,291.886678 745.78,293.92 C745.78,294.22 745.78,294.52 745.78,294.83 C745.78,295.14 745.78,295.46 745.7,295.83 L724.33,295.83 C724.553538,297.943847 725.56371,299.89637 727.16,301.3 C728.714081,302.579149 730.677915,303.253884 732.69,303.2 C734.168417,303.237883 735.63589,302.936863 736.98,302.32 C738.300098,301.656092 739.505359,300.785063 740.55,299.74 L744.46,303.2 C743.079881,304.856616 741.379163,306.21719 739.46,307.2 C737.306813,308.191209 734.948097,308.654038 732.58,308.55 Z M739.12,291.33 C739.025332,290.301629 738.786319,289.291713 738.41,288.33 C738.071214,287.438432 737.569321,286.617769 736.93,285.91 C736.300381,285.23303 735.546769,284.683097 734.71,284.29 C733.789757,283.875675 732.78903,283.670748 731.78,283.69 C729.863881,283.635299 728.01685,284.407627 726.71,285.81 C725.325607,287.339601 724.473169,289.276001 724.28,291.33 L739.12,291.33 Z M734.8,266.14 L740.8,268.84 L734.04,275.16 L729.04,275.16 L734.8,266.14 Z" id="Shape" fill="#D49B6D"></path>
            <path d="M764.42,308.55 C762.417224,308.564979 760.430548,308.191416 758.57,307.45 C756.800042,306.744696 755.18608,305.698169 753.82,304.37 C752.448109,303.013401 751.363242,301.394601 750.63,299.61 C749.83242,297.665935 749.43451,295.58116 749.46,293.48 L749.46,293.37 C749.430125,291.362017 749.769075,289.365606 750.46,287.48 C751.141853,285.6989 752.160408,284.065816 753.46,282.67 C754.722594,281.297963 756.249954,280.195815 757.95,279.43 C761.730349,277.815058 766.011857,277.844036 769.77,279.51 C771.460257,280.305983 772.950233,281.471308 774.13,282.92 C775.312473,284.403948 776.19856,286.101433 776.74,287.92 C777.339682,289.862949 777.636496,291.886678 777.62,293.92 C777.62,294.22 777.62,294.52 777.62,294.83 C777.62,295.14 777.57,295.46 777.53,295.83 L756.17,295.83 C756.418422,297.907872 757.426385,299.820507 759,301.2 C760.553185,302.480751 762.517637,303.155699 764.53,303.1 C766.008323,303.136822 767.475559,302.83585 768.82,302.22 C770.140098,301.556092 771.345359,300.685063 772.39,299.64 L776.29,303.1 C774.908724,304.755435 773.208265,306.115802 771.29,307.1 C769.146964,308.120038 766.792465,308.616984 764.42,308.55 Z M771,291.33 C770.896231,290.303138 770.657506,289.294444 770.29,288.33 C769.947518,287.44025 769.446019,286.620232 768.81,285.91 C768.180381,285.23303 767.426769,284.683097 766.59,284.29 C765.669146,283.877568 764.668848,283.672729 763.66,283.69 C761.743151,283.631357 759.894557,284.404339 758.59,285.81 C757.198904,287.336271 756.342424,289.273881 756.15,291.33 L771,291.33 Z" id="Shape" fill="#D49B6D"></path>
        </g>
    </g>
</svg>