<svg width="140px" height="50px" viewBox="0 0 140 50" version="1.1" xmlns="http://www.w3.org/2000/svg" xmlns:xlink="http://www.w3.org/1999/xlink">
    <g id="Symbols" stroke="none" stroke-width="1" fill="none" fill-rule="evenodd">
        <g id="header" transform="translate(-111.000000, -31.000000)" fill="#253138">
            <g transform="translate(111.000000, 31.000000)">
              <path d="M5.58141696,32.0428538 C9.61969114,30.4956571 15.6775977,28.1503882 23.754889,25.0090347 C22.9381205,19.9557367 20.4419984,17.4290877 16.2675136,17.4290877 C12.8644764,17.4290877 10.2321437,18.6358863 8.37224927,21.048241 C6.51086888,23.461838 5.58141696,26.8081758 5.58141696,31.0867573 L5.58141696,32.0428538 Z M29.6765849,43.0372182 C26.4540887,47.0896958 22.0074303,49.1149407 16.3358666,49.1149407 C11.7520069,49.1149407 7.88411985,47.4313363 4.73047191,44.0613943 C1.576081,40.6929431 0,36.5731312 0,31.7014617 C0,26.7395992 1.55379199,22.5964315 4.66261424,19.2727042 C7.77019822,15.9502191 11.6616125,14.2879828 16.3358666,14.2879828 C20.1017195,14.2879828 23.3009361,15.4945328 25.9330211,17.907136 C28.4281525,20.1840768 29.9031899,23.0744798 30.3571429,26.5795872 L5.85383826,34.9792229 C6.39818553,37.8025401 7.37345375,40.100849 8.78063356,41.8763858 C10.958518,44.6077706 13.7939283,45.9735873 17.2885982,45.9735873 C21.5992936,45.9735873 25.4565315,44.0166704 28.8598164,40.100849 C28.996027,40.4198791 29.1322377,40.9096053 29.2682007,41.5690336 C29.4041636,42.2294558 29.5403743,42.7194304 29.6765849,43.0372182 Z" id="Fill-6"></path>
              <path d="M40.7038858,32.0610729 L40.7038858,33.357425 C40.7038858,37.3596608 41.7013951,40.4634101 43.6971647,42.6684248 C45.6929343,44.8749287 48.4335809,45.9769397 51.9203563,45.9769397 C55.3610621,45.9769397 58.1017087,44.681084 60.1437984,42.0886281 C62.1843858,39.4966685 63.2059314,36.0858949 63.2059314,31.8565556 C63.2059314,27.6272162 62.1843858,24.1598529 60.1437984,21.4534728 C58.1017087,18.7483338 55.4524504,17.3948955 52.1955227,17.3948955 C48.8925252,17.3948955 46.1508771,18.7823373 43.9725814,21.5559797 C41.7930337,24.3303668 40.7038858,27.8317336 40.7038858,32.0610729 Z M40.6350316,21.0101864 C43.6165427,16.5078263 47.585047,14.2568945 52.5395432,14.2568945 C57.3105117,14.2568945 61.198394,15.8600226 64.203691,19.0660306 C67.2077362,22.2722868 68.7110106,26.3991193 68.7110106,31.4470245 C68.7110106,36.3586675 67.0477441,40.5316653 63.7222126,43.9647769 C60.3951788,47.3988813 56.369588,49.1149407 51.64519,49.1149407 C45.5072153,49.1149407 41.1891071,45.3712746 38.7808968,41.8961068 C35.5846769,37.2838018 35.4051188,32.2131639 35.4051188,27.8999887 L35.4051188,3.41052536 C35.4051188,2.50136632 35.0147782,2.0464145 34.2353489,2.0464145 C33.4093492,1.68280052 32.9967249,1.29585568 32.9967249,0.886572782 C34.6932918,0.750310616 37.239394,0.454951822 40.6350316,0 L40.6350316,21.0101864 Z" id="Fill-8"></path>
              <path d="M79.6885598,32.0428538 C83.726834,30.4956571 89.7847406,28.1503882 97.8620319,25.0090347 C97.0452633,19.9557367 94.5491413,17.4290877 90.3746565,17.4290877 C86.9713716,17.4290877 84.3392866,18.6358863 82.4793921,21.048241 C80.6180117,23.461838 79.6885598,26.8081758 79.6885598,31.0867573 L79.6885598,32.0428538 Z M103.783728,43.0372182 C100.561232,47.0896958 96.1145731,49.1149407 90.4430095,49.1149407 C85.8591497,49.1149407 81.9910151,47.4313363 78.8376148,44.0613943 C75.6832239,40.6929431 74.1071429,36.5731312 74.1071429,31.7014617 C74.1071429,26.7395992 75.6609348,22.5964315 78.7695094,19.2727042 C81.8773411,15.9502191 85.7687554,14.2879828 90.4430095,14.2879828 C94.2088623,14.2879828 97.4078313,15.4945328 100.040164,17.907136 C102.535048,20.1840768 104.010085,23.0744798 104.464286,26.5795872 L79.9609811,34.9792229 C80.5053284,37.8025401 81.4805966,40.100849 82.8875288,41.8763858 C85.0656608,44.6077706 87.9010712,45.9735873 91.395741,45.9735873 C95.7061888,45.9735873 99.5636743,44.0166704 102.966959,40.100849 C103.10317,40.4198791 103.239133,40.9096053 103.375344,41.5690336 C103.511307,42.2294558 103.647517,42.7194304 103.783728,43.0372182 Z" id="Fill-10"></path>
              <path d="M136.845194,45.7155203 C136.845194,46.7333018 137.342177,47.2416876 138.336637,47.2416876 L139.217641,47.2416876 L139.285714,48.4212742 C135.986388,48.6065548 133.455844,48.8372722 131.693342,49.1149407 L131.693342,25.6655783 C131.693342,20.2086338 129.343093,17.4791518 124.643582,17.4791518 C122.112298,17.4791518 119.966268,18.5317681 118.204013,20.6357385 C116.441264,22.7409711 115.56026,25.2733083 115.56026,28.2324979 L115.56026,45.7155203 C115.56026,46.7333018 116.102379,47.2416876 117.187109,47.2416876 L118.204013,47.2416876 L118.204013,48.4212742 C117.0739,48.4677206 115.379225,48.5835841 113.119987,48.7681075 C110.859762,48.9523784 109.16484,49.0682419 108.035714,49.1149407 L108.035714,47.9356066 L108.917212,47.9356066 C109.910685,47.9356066 110.408408,47.4499391 110.408408,46.478604 L110.408408,17.9648194 C110.408408,17.0401831 110.023893,16.5772338 109.256098,16.5772338 C108.442673,16.1609834 108.035714,15.744733 108.035714,15.3284826 C108.442673,15.2827935 109.052618,15.2136288 109.866043,15.1202312 C110.679467,15.0280957 111.266228,14.9816493 111.628544,14.9816493 C112.803052,14.8895138 114.023435,14.7506796 115.289201,14.5653989 L115.289201,20.739738 C118.044929,16.438652 121.547735,14.2879828 125.795892,14.2879828 C129.320895,14.2879828 132.042833,15.3870454 133.964172,17.5831513 C135.884525,19.7805193 136.845194,22.8904072 136.845194,26.914582 L136.845194,45.7155203 Z" id="Fill-12"></path>
            </g>
        </g>
    </g>
</svg>