<?xml version="1.0" standalone="no"?>
<!DOCTYPE svg PUBLIC "-//W3C//DTD SVG 20010904//EN"
 "http://www.w3.org/TR/2001/REC-SVG-20010904/DTD/svg10.dtd">
<svg version="1.0" xmlns="http://www.w3.org/2000/svg"
 width="684.000000pt" height="684.000000pt" viewBox="0 0 684.000000 684.000000"
 preserveAspectRatio="xMidYMid meet">
<metadata>
Created by potrace 1.11, written by Peter Selinger 2001-2013
</metadata>
<g transform="translate(0.000000,684.000000) scale(0.100000,-0.100000)"
fill="#000000" stroke="none">
<path d="M3627 6524 c-2 -3 -67 -7 -143 -10 -77 -2 -152 -6 -169 -8 -16 -2
-59 -7 -95 -10 -36 -4 -72 -9 -80 -11 -8 -2 -31 -7 -50 -10 -19 -3 -46 -8 -60
-10 -14 -3 -35 -7 -48 -10 -13 -2 -33 -7 -44 -11 -11 -3 -30 -7 -41 -9 -36 -4
-261 -72 -312 -94 -11 -5 -56 -24 -100 -42 -153 -63 -427 -216 -520 -291 -5
-4 -56 -44 -112 -88 -166 -130 -339 -307 -511 -519 -115 -143 -314 -481 -382
-651 -12 -30 -28 -66 -35 -80 -7 -14 -14 -28 -14 -32 -2 -17 -6 -29 -20 -63
-7 -16 -14 -37 -16 -45 -2 -8 -8 -28 -15 -44 -11 -31 -76 -276 -85 -323 -3
-16 -7 -38 -9 -49 -2 -12 -7 -37 -10 -55 -3 -19 -8 -45 -11 -59 -5 -23 -12
-81 -20 -155 -10 -85 -16 -171 -20 -272 -3 -61 -5 -115 -6 -120 -1 -4 -1 -12
0 -18 0 -5 3 -82 6 -170 3 -88 7 -178 9 -200 2 -22 7 -67 10 -100 4 -33 8 -67
11 -75 2 -8 6 -35 9 -60 3 -25 8 -56 11 -70 3 -14 7 -38 10 -55 3 -21 32 -150
34 -150 1 0 12 -42 21 -80 13 -51 64 -213 79 -250 5 -11 30 -73 56 -137 26
-65 52 -118 58 -118 6 0 8 -3 5 -6 -7 -7 97 -208 142 -274 10 -14 35 -52 56
-85 130 -204 342 -447 553 -632 122 -108 130 -114 186 -153 28 -19 52 -38 55
-41 9 -10 179 -119 187 -120 5 -1 19 -9 33 -19 40 -29 228 -121 325 -160 130
-52 380 -129 440 -134 11 -2 34 -6 50 -9 54 -13 79 -17 125 -22 25 -3 52 -7
60 -10 35 -10 280 -25 400 -24 216 1 349 10 533 35 67 9 246 44 312 61 33 8
67 16 75 18 38 7 235 74 336 114 117 46 359 170 422 218 17 13 32 20 32 16 0
-4 5 0 11 10 5 9 15 17 20 17 9 0 75 45 89 60 3 3 21 17 40 30 19 13 40 29 46
35 6 5 34 28 62 50 65 51 282 270 356 358 44 53 54 71 47 85 -12 22 -55 187
-71 267 -6 33 -15 71 -19 85 -5 14 -17 53 -26 87 -10 35 -21 63 -24 63 -4 0
-21 -17 -38 -38 -66 -80 -281 -289 -394 -384 -69 -59 -232 -179 -256 -191 -13
-6 -23 -14 -23 -19 0 -4 -4 -8 -9 -8 -6 0 -29 -13 -53 -29 -24 -16 -74 -46
-113 -66 -38 -21 -83 -46 -100 -55 -16 -9 -70 -33 -120 -54 -49 -21 -99 -41
-110 -46 -25 -11 -156 -56 -170 -59 -5 0 -32 -8 -60 -15 -47 -14 -63 -18 -132
-31 -16 -3 -35 -8 -44 -11 -9 -2 -34 -7 -55 -10 -22 -2 -50 -7 -64 -9 -133
-24 -568 -24 -643 0 -7 2 -30 6 -52 9 -64 9 -99 17 -225 51 -43 11 -162 55
-213 79 -32 14 -62 26 -66 26 -5 0 -11 3 -13 8 -1 4 -33 23 -70 42 -38 19 -68
38 -68 43 0 4 -5 7 -10 7 -11 0 -111 66 -120 79 -3 4 -12 12 -22 17 -54 30
-296 269 -348 344 -8 12 -24 32 -34 43 -42 48 -149 218 -194 307 -15 30 -29
57 -32 60 -5 4 -27 54 -66 145 -66 156 -136 369 -160 485 -3 14 -10 43 -16 65
-5 22 -12 49 -13 60 -2 11 -6 32 -9 47 -7 32 0 35 144 82 47 16 94 32 105 36
11 4 47 17 80 28 33 11 121 42 195 67 74 26 140 48 145 50 6 1 17 5 25 8 8 4
94 33 190 66 96 33 209 71 250 86 41 14 82 28 90 30 8 2 67 22 130 45 63 23
122 43 130 45 8 2 56 17 105 35 50 17 117 40 150 51 33 10 67 22 75 26 8 3 20
7 25 9 36 9 373 126 385 133 17 9 76 24 86 21 4 -1 10 2 13 7 5 6 107 45 131
49 3 0 12 4 20 7 8 4 35 13 60 21 25 8 151 50 280 95 362 125 444 153 455 155
6 1 15 4 20 7 14 9 204 71 207 68 2 -1 23 8 48 21 25 13 46 22 48 21 3 -2 55
11 66 17 4 2 123 44 265 92 481 164 456 155 455 176 -1 16 -8 73 -18 144 -5
30 -28 135 -34 150 -8 21 -18 63 -26 105 -18 92 -151 405 -231 545 -38 65
-150 235 -170 256 -5 7 -21 26 -35 44 -138 175 -324 351 -523 494 -153 109
-347 213 -527 281 -25 10 -54 21 -65 25 -18 7 -119 37 -205 60 -35 10 -174 38
-220 46 -14 2 -41 6 -60 9 -47 8 -111 13 -255 20 -66 4 -122 8 -126 10 -3 3
-9 2 -12 -1z m88 -558 c66 -3 131 -8 145 -10 84 -18 131 -29 180 -43 58 -16
211 -80 220 -91 3 -4 15 -13 28 -19 12 -7 32 -19 45 -25 12 -7 24 -15 27 -18
3 -3 22 -18 42 -33 134 -100 268 -274 363 -472 31 -67 96 -238 111 -295 2 -8
15 -58 28 -110 14 -52 26 -107 26 -122 0 -15 3 -29 8 -31 4 -3 7 -24 7 -47 0
-41 -1 -43 -50 -61 -27 -11 -59 -24 -70 -29 -11 -5 -69 -28 -130 -51 -60 -23
-123 -47 -140 -54 -81 -34 -291 -115 -299 -115 -5 0 -27 -9 -50 -19 -44 -21
-324 -132 -341 -135 -5 -2 -27 -10 -49 -19 -21 -9 -40 -17 -42 -17 -1 0 -15
-5 -31 -12 -15 -6 -30 -12 -33 -13 -8 -1 -302 -116 -335 -130 -88 -38 -188
-75 -201 -75 -8 0 -14 -5 -14 -10 0 -6 -3 -9 -7 -8 -5 2 -51 -14 -103 -34 -52
-21 -171 -67 -265 -103 -93 -36 -179 -70 -190 -75 -11 -5 -121 -48 -245 -96
-256 -98 -380 -146 -530 -203 -58 -23 -108 -41 -111 -41 -3 0 -5 96 -3 213 3
201 7 282 18 393 14 127 16 150 20 169 2 11 7 42 10 68 4 27 9 59 12 70 2 12
7 38 10 57 8 48 33 159 45 195 5 17 21 71 35 120 15 50 31 96 36 103 6 6 8 12
4 12 -4 0 2 17 13 38 10 20 20 42 21 47 7 29 98 225 109 235 3 3 19 30 35 60
17 30 33 60 38 65 4 6 41 55 82 111 116 157 270 303 419 398 54 35 230 127
252 133 6 1 46 15 90 31 98 35 170 54 255 68 130 21 161 25 260 31 52 3 97 7
98 8 2 2 9 2 15 0 7 -2 66 -6 132 -9z"/>
</g>
</svg>
